<svg width="1920" height="1317" viewBox="0 68 1920 1259" fill="none" xmlns="http://www.w3.org/2000/svg">
<path fill-rule="evenodd" clip-rule="evenodd" d="M0 39H1920V1356H0V39Z" fill="url(#paint0_linear)"/>
<path d="M316.647 306.833C379 239 474.45 307.423 511.809 331.582L399 482C343.492 452.419 264.772 363.268 316.647 306.833Z" fill="#CC06B5"/>
<path fill-rule="evenodd" clip-rule="evenodd" d="M-310.294 1051.35C-291.694 1024.73 -242.519 912.189 -153.419 853.347C-66.2464 795.777 -36.8552 881.87 119.528 913.975C294.907 949.98 210.016 1047.74 183.43 1185.82C156.844 1323.89 156.108 1262.43 -19.3246 1226.42C-194.757 1190.4 -392.432 1168.89 -310.294 1051.35Z" fill="#FF0042"/>
<path d="M503 1161.49C332 1194.99 308 1313.99 308 1359.99L1937.5 1359.99V870.493C1920.5 1043.49 1813.5 1108.99 1722.5 1029.99C1620.64 941.568 1384.5 740.993 1239.5 830.493C1094.5 919.993 1152.5 1102.5 973.5 1140.5C794.5 1178.5 674 1127.99 503 1161.49Z" fill="url(#paint1_linear)"/>
<path fill-rule="evenodd" clip-rule="evenodd" d="M1691.71 317.348C1710.31 290.733 1759.48 178.189 1848.58 119.347C1935.75 61.7766 1965.14 147.87 2121.53 179.975C2296.91 215.98 2212.02 313.744 2185.43 451.817C2158.84 589.89 2158.11 528.435 1982.68 492.419C1807.24 456.403 1609.57 434.886 1691.71 317.348Z" fill="#12CAF9"/>
<defs>
<linearGradient id="paint0_linear" x1="943.93" y1="1628.07" x2="2041.7" y2="345.091" gradientUnits="userSpaceOnUse">
<stop stop-color="#FB2059"/>
<stop offset="0.602402" stop-color="#8138E9"/>
<stop offset="1" stop-color="#12CAF9"/>
</linearGradient>
<linearGradient id="paint1_linear" x1="1109.11" y1="1474.02" x2="1443.06" y2="683.72" gradientUnits="userSpaceOnUse">
<stop stop-color="#FB2059"/>
<stop offset="0.602402" stop-color="#8138E9"/>
<stop offset="1" stop-color="#12CAF9"/>
</linearGradient>
</defs>
</svg>
