<svg width="89" height="76" viewBox="0 0 89 76" fill="none" xmlns="http://www.w3.org/2000/svg">
<path fill-rule="evenodd" clip-rule="evenodd" d="M60 0.5H62.5V3V14.5H86H88.5V17V59.8676V62.3676H86H57.0439L41.8267 72.1057L37.1523 75.097L38.0091 69.614L39.1415 62.3676H29H26.5V59.8676V48.3676H3H0.5V45.8676V3V0.5H3H60ZM26.5 43.3676V17V14.5H29H57.5V5.5H5.5V43.3676H26.5ZM31.5 57.3676V19.5H83.5V57.3676H56.3125H55.5811L54.965 57.7619L43.806 64.903L44.5325 60.2536L44.9835 57.3676H42.0625H31.5ZM45 35C46.1046 35 47 34.1046 47 33C47 31.8954 46.1046 31 45 31C43.8954 31 43 31.8954 43 33C43 34.1046 43.8954 35 45 35ZM45 39C48.3137 39 51 36.3137 51 33C51 29.6863 48.3137 27 45 27C41.6863 27 39 29.6863 39 33C39 36.3137 41.6863 39 45 39ZM72 33C72 34.1046 71.1046 35 70 35C68.8954 35 68 34.1046 68 33C68 31.8954 68.8954 31 70 31C71.1046 31 72 31.8954 72 33ZM76 33C76 36.3137 73.3137 39 70 39C66.6863 39 64 36.3137 64 33C64 29.6863 66.6863 27 70 27C73.3137 27 76 29.6863 76 33Z" fill="#2F80ED"/>
<path d="M65 42C65 46.9706 60.5228 51 55 51" stroke="#FF4033" stroke-width="5"/>
</svg>
