<svg width="1920" height="496" viewBox="0 0 1920 496" fill="none" xmlns="http://www.w3.org/2000/svg">
<mask id="mask0" mask-type="alpha" maskUnits="userSpaceOnUse" x="0" y="0" width="1920" height="496">
<rect width="1920" height="496" fill="url(#paint0_linear)"/>
</mask>
<g mask="url(#mask0)">
<rect width="1920" height="496" fill="url(#paint1_linear)"/>
<path fill-rule="evenodd" clip-rule="evenodd" d="M1620.83 308.256L1619.15 303.628C1618.56 303.717 1618.02 304.005 1617.61 304.495C1616.71 305.561 1616.85 307.144 1617.91 308.039C1618.76 308.748 1619.93 308.796 1620.83 308.256ZM1614.86 292.446C1614.92 292.373 1614.96 292.295 1615.01 292.219L1613.63 288.399C1612.7 288.14 1611.66 288.421 1611 289.21C1610.11 290.276 1610.24 291.863 1611.31 292.758C1612.37 293.65 1613.96 293.512 1614.86 292.446ZM1598.66 288.6C1599.56 287.53 1599.42 285.931 1598.35 285.036C1597.29 284.144 1595.7 284.292 1594.8 285.361C1593.91 286.428 1594.05 288.01 1595.11 288.903C1596.18 289.798 1597.77 289.666 1598.66 288.6ZM1575.85 269.461C1576.75 268.391 1576.62 266.801 1575.55 265.906C1574.49 265.01 1572.9 265.158 1572 266.228C1571.11 267.294 1571.24 268.877 1572.31 269.773C1573.38 270.668 1574.96 270.527 1575.85 269.461ZM1601.65 261.88C1602.55 260.81 1602.41 259.218 1601.34 258.322C1600.28 257.43 1598.69 257.575 1597.79 258.644C1596.9 259.711 1597.03 261.297 1598.1 262.189C1599.16 263.085 1600.76 262.946 1601.65 261.88ZM1618.47 334.444C1619.37 333.374 1619.23 331.788 1618.17 330.893C1617.1 329.997 1615.52 330.141 1614.62 331.211C1613.72 332.281 1613.85 333.864 1614.92 334.759C1615.99 335.655 1617.58 335.513 1618.47 334.444ZM1585.45 258.029C1586.34 256.959 1586.21 255.369 1585.15 254.473C1584.08 253.578 1582.49 253.726 1581.59 254.796C1580.7 255.858 1580.83 257.449 1581.9 258.344C1582.97 259.239 1584.56 259.091 1585.45 258.029ZM1592.06 273.313C1592.95 272.243 1592.82 270.646 1591.75 269.751C1590.69 268.859 1589.1 269.007 1588.2 270.077C1587.31 271.143 1587.44 272.729 1588.5 273.622C1589.57 274.517 1591.16 274.379 1592.06 273.313ZM1630.64 335.319C1629.96 336.37 1630.14 337.786 1631.12 338.608C1631.39 338.834 1631.69 338.993 1632.01 339.09L1630.64 335.319ZM1589.07 300.029C1589.97 298.963 1589.82 297.367 1588.76 296.472C1587.69 295.58 1586.11 295.724 1585.21 296.79C1584.32 297.86 1584.45 299.446 1585.51 300.339C1586.58 301.234 1588.18 301.099 1589.07 300.029ZM1566.26 280.89C1567.16 279.823 1567.03 278.237 1565.96 277.342C1564.89 276.447 1563.31 276.591 1562.41 277.657C1561.51 278.727 1561.65 280.313 1562.71 281.209C1563.78 282.104 1565.37 281.959 1566.26 280.89ZM1578.84 242.741C1579.74 241.671 1579.61 240.088 1578.54 239.192C1577.47 238.297 1575.88 238.435 1574.98 239.505C1574.09 240.571 1574.23 242.164 1575.3 243.059C1576.36 243.954 1577.95 243.807 1578.84 242.741ZM1582.46 284.745C1583.36 283.675 1583.22 282.086 1582.15 281.191C1581.09 280.299 1579.51 280.439 1578.61 281.509C1577.71 282.579 1577.85 284.162 1578.91 285.054C1579.98 285.949 1581.57 285.815 1582.46 284.745ZM1559.65 265.606C1560.55 264.536 1560.42 262.956 1559.35 262.061C1558.29 261.166 1556.7 261.3 1555.8 262.37C1554.9 263.44 1555.04 265.029 1556.11 265.924C1557.18 266.819 1558.76 266.676 1559.65 265.606ZM1611.87 319.159C1612.77 318.093 1612.63 316.5 1611.56 315.608C1610.5 314.713 1608.91 314.857 1608.02 315.923C1607.12 316.993 1607.25 318.58 1608.32 319.475C1609.38 320.367 1610.97 320.229 1611.87 319.159ZM1624.82 319.262C1624.6 319.403 1624.4 319.563 1624.22 319.779C1623.32 320.848 1623.45 322.428 1624.52 323.323C1625.09 323.8 1625.81 323.976 1626.49 323.875L1624.82 319.262ZM1605.27 303.878C1606.16 302.808 1606.02 301.219 1604.96 300.327C1603.89 299.432 1602.31 299.572 1601.41 300.642C1600.51 301.712 1600.65 303.295 1601.72 304.19C1602.78 305.082 1604.37 304.948 1605.27 303.878ZM1569.25 254.173C1570.15 253.103 1570.02 251.516 1568.95 250.621C1567.88 249.726 1566.29 249.868 1565.39 250.938C1564.5 252.004 1564.64 253.596 1565.7 254.492C1566.77 255.387 1568.35 255.239 1569.25 254.173ZM1502.1 334.2C1502.99 333.134 1502.86 331.55 1501.8 330.655C1500.73 329.76 1499.14 329.898 1498.24 330.964C1497.34 332.034 1497.48 333.627 1498.55 334.522C1499.62 335.417 1501.2 335.27 1502.1 334.2ZM1541.11 357.194C1542 356.128 1541.86 354.533 1540.79 353.637C1539.73 352.745 1538.14 352.89 1537.25 353.956C1536.35 355.022 1536.48 356.612 1537.54 357.504C1538.61 358.399 1540.21 358.261 1541.11 357.194ZM1518.3 338.055C1519.19 336.989 1519.06 335.403 1517.99 334.507C1516.92 333.612 1515.34 333.756 1514.44 334.823C1513.55 335.889 1513.68 337.479 1514.75 338.374C1515.81 339.269 1517.4 339.121 1518.3 338.055ZM1553.45 357.804C1552.7 358.692 1552.68 359.93 1553.29 360.839L1556.84 361.453C1557 361.337 1557.16 361.204 1557.3 361.04C1558.2 359.974 1558.06 358.381 1556.99 357.489C1555.93 356.594 1554.34 356.738 1553.45 357.804ZM1495.5 318.925C1496.39 317.859 1496.26 316.269 1495.19 315.374C1494.4 314.714 1493.35 314.619 1492.48 315.034L1491.14 316.622C1490.89 317.551 1491.16 318.581 1491.94 319.241C1493.01 320.136 1494.6 319.991 1495.5 318.925ZM1595.04 246.592C1595.94 245.526 1595.81 243.936 1594.74 243.041C1593.67 242.146 1592.09 242.294 1591.19 243.36C1590.3 244.426 1590.43 246.012 1591.5 246.908C1592.56 247.803 1594.15 247.659 1595.04 246.592ZM1508.7 349.488C1509.6 348.421 1509.47 346.835 1508.4 345.94C1507.33 345.044 1505.75 345.189 1504.85 346.255C1503.95 347.325 1504.09 348.911 1505.15 349.806C1506.22 350.702 1507.81 350.557 1508.7 349.488ZM1524.91 353.339C1525.8 352.273 1525.66 350.68 1524.59 349.785C1523.53 348.893 1521.94 349.037 1521.05 350.104C1520.15 351.173 1520.29 352.76 1521.35 353.652C1522.42 354.547 1524.01 354.409 1524.91 353.339ZM1492.5 345.632C1493.4 344.566 1493.27 342.983 1492.2 342.088C1491.14 341.192 1489.54 341.33 1488.65 342.397C1487.75 343.466 1487.89 345.059 1488.96 345.954C1490.02 346.85 1491.61 346.702 1492.5 345.632ZM1505.09 307.493C1505.99 306.423 1505.85 304.837 1504.78 303.942C1504 303.282 1502.94 303.186 1502.07 303.605L1500.73 305.194C1500.48 306.118 1500.75 307.149 1501.54 307.809C1502.6 308.704 1504.2 308.559 1505.09 307.493ZM1588.43 231.309C1589.33 230.239 1589.2 228.655 1588.13 227.76C1587.07 226.865 1585.47 227.003 1584.58 228.073C1583.68 229.139 1583.82 230.732 1584.89 231.627C1585.96 232.522 1587.54 232.375 1588.43 231.309ZM1572.24 227.462C1573.14 226.396 1573.01 224.803 1571.94 223.908C1571.15 223.248 1570.09 223.16 1569.22 223.575L1567.89 225.163C1567.63 226.088 1567.91 227.115 1568.69 227.775C1569.76 228.67 1571.35 228.529 1572.24 227.462ZM1553.06 250.331C1553.95 249.261 1553.82 247.668 1552.75 246.773C1551.97 246.113 1550.9 246.024 1550.04 246.44L1548.71 248.024C1548.44 248.957 1548.72 249.979 1549.51 250.639C1550.58 251.535 1552.16 251.397 1553.06 250.331ZM1562.65 238.898C1563.55 237.829 1563.41 236.235 1562.35 235.34C1561.56 234.68 1560.5 234.592 1559.63 235.007L1558.3 236.596C1558.04 237.524 1558.31 238.551 1559.1 239.211C1560.16 240.106 1561.76 239.961 1562.65 238.898ZM1514.68 296.06C1515.58 294.991 1515.45 293.401 1514.38 292.506C1513.59 291.846 1512.53 291.754 1511.66 292.173L1510.33 293.758C1510.07 294.686 1510.35 295.713 1511.13 296.373C1512.2 297.268 1513.79 297.127 1514.68 296.06ZM1524.28 284.628C1525.17 283.558 1525.04 281.969 1523.97 281.073C1523.18 280.413 1522.13 280.322 1521.26 280.737L1519.93 282.322C1519.67 283.254 1519.94 284.28 1520.73 284.94C1521.79 285.835 1523.38 285.694 1524.28 284.628ZM1543.47 261.76C1544.36 260.693 1544.22 259.104 1543.16 258.209C1542.37 257.549 1541.31 257.461 1540.44 257.872L1539.11 259.46C1538.85 260.389 1539.13 261.415 1539.91 262.075C1540.98 262.971 1542.57 262.829 1543.47 261.76ZM1533.87 273.192C1534.77 272.126 1534.63 270.536 1533.56 269.641C1532.78 268.981 1531.72 268.889 1530.85 269.308L1529.52 270.893C1529.26 271.821 1529.53 272.848 1530.32 273.508C1531.39 274.403 1532.98 274.262 1533.87 273.192ZM1485.91 330.358C1486.8 329.291 1486.66 327.702 1485.6 326.807C1484.81 326.147 1483.75 326.055 1482.88 326.466L1481.55 328.055C1481.29 328.983 1481.57 330.013 1482.35 330.673C1483.42 331.569 1485.01 331.427 1485.91 330.358ZM1585.84 365.508C1585.6 365.797 1585.44 366.108 1585.35 366.448L1590.28 367.314C1590.33 366.532 1590.04 365.734 1589.39 365.19C1588.32 364.295 1586.74 364.438 1585.84 365.508ZM1560.29 334.33C1561.19 333.26 1561.05 331.664 1559.98 330.769C1558.92 329.877 1557.33 330.021 1556.43 331.091C1555.54 332.157 1555.67 333.744 1556.73 334.636C1557.8 335.531 1559.4 335.396 1560.29 334.33ZM1566.89 349.608C1567.79 348.538 1567.65 346.949 1566.59 346.057C1565.52 345.161 1563.94 345.302 1563.04 346.372C1562.14 347.442 1562.27 349.028 1563.34 349.923C1564.4 350.816 1566 350.677 1566.89 349.608ZM1602.04 369.357L1602.03 369.368L1606.33 370.121C1606.18 369.716 1605.94 369.338 1605.59 369.038C1604.53 368.149 1602.93 368.287 1602.04 369.357ZM1553.69 319.042C1554.58 317.972 1554.44 316.38 1553.38 315.484C1552.31 314.592 1550.73 314.737 1549.83 315.806C1548.93 316.876 1549.07 318.459 1550.13 319.351C1551.2 320.246 1552.79 320.112 1553.69 319.042ZM1521.28 311.335C1522.18 310.265 1522.05 308.686 1520.98 307.79C1519.91 306.895 1518.32 307.03 1517.43 308.099C1516.53 309.169 1516.67 310.762 1517.74 311.657C1518.8 312.552 1520.39 312.405 1521.28 311.335ZM1595.67 315.31C1596.57 314.241 1596.43 312.652 1595.36 311.759C1594.3 310.864 1592.71 311.005 1591.82 312.075C1590.92 313.145 1591.05 314.731 1592.12 315.626C1593.18 316.518 1594.78 316.38 1595.67 315.31ZM1537.48 315.19C1538.38 314.121 1538.25 312.534 1537.18 311.639C1536.11 310.744 1534.53 310.888 1533.63 311.958C1532.74 313.024 1532.87 314.61 1533.94 315.506C1535 316.401 1536.59 316.257 1537.48 315.19ZM1527.89 326.623C1528.79 325.553 1528.65 323.97 1527.58 323.075C1526.52 322.18 1524.93 322.32 1524.04 323.39C1523.14 324.456 1523.27 326.046 1524.34 326.942C1525.41 327.837 1526.99 327.689 1527.89 326.623ZM1534.5 341.907C1535.39 340.841 1535.25 339.248 1534.19 338.353C1533.12 337.461 1531.54 337.605 1530.64 338.671C1529.75 339.741 1529.88 341.331 1530.94 342.223C1532.01 343.119 1533.6 342.977 1534.5 341.907ZM1608.26 277.168C1608.77 276.558 1608.93 275.777 1608.78 275.057L1608.52 274.306C1608.37 274.046 1608.19 273.805 1607.95 273.603C1606.88 272.711 1605.29 272.859 1604.4 273.929C1603.5 274.992 1603.64 276.582 1604.7 277.474C1605.77 278.369 1607.36 278.23 1608.26 277.168ZM1581.83 216.034C1582.73 214.964 1582.6 213.371 1581.53 212.475C1580.74 211.815 1579.68 211.727 1578.81 212.143L1577.48 213.727C1577.23 214.656 1577.5 215.682 1578.29 216.342C1579.35 217.237 1580.94 217.1 1581.83 216.034ZM1544.09 330.474C1544.99 329.405 1544.85 327.816 1543.78 326.92C1542.72 326.028 1541.13 326.169 1540.24 327.239C1539.34 328.309 1539.47 329.895 1540.53 330.787C1541.6 331.682 1543.19 331.544 1544.09 330.474ZM1476.32 341.786C1477.21 340.72 1477.07 339.134 1476 338.239C1475.22 337.579 1474.16 337.487 1473.29 337.902L1471.96 339.487C1471.7 340.416 1471.97 341.446 1472.76 342.106C1473.83 343.001 1475.42 342.856 1476.32 341.786ZM1569.64 361.656C1569.17 362.219 1568.99 362.924 1569.08 363.605L1573.81 364.429C1574.33 363.399 1574.11 362.114 1573.19 361.341C1572.12 360.446 1570.54 360.587 1569.64 361.656ZM1550.7 345.762C1551.6 344.692 1551.45 343.1 1550.38 342.205C1549.32 341.313 1547.74 341.453 1546.84 342.523C1545.94 343.59 1546.07 345.18 1547.14 346.072C1548.2 346.967 1549.8 346.828 1550.7 345.762ZM1511.69 322.768C1512.58 321.701 1512.46 320.118 1511.39 319.223C1510.32 318.327 1508.73 318.466 1507.83 319.532C1506.94 320.602 1507.07 322.198 1508.14 323.093C1509.21 323.988 1510.79 323.837 1511.69 322.768ZM1530.88 299.903C1531.77 298.833 1531.64 297.25 1530.58 296.354C1529.51 295.459 1527.92 295.597 1527.02 296.667C1526.12 297.737 1526.27 299.326 1527.33 300.221C1528.4 301.116 1529.98 300.973 1530.88 299.903ZM1583.09 353.46C1583.99 352.39 1583.85 350.797 1582.78 349.905C1581.72 349.01 1580.13 349.154 1579.23 350.224C1578.34 351.29 1578.47 352.877 1579.54 353.772C1580.6 354.664 1582.2 354.526 1583.09 353.46ZM1556.67 292.322C1557.57 291.256 1557.43 289.669 1556.37 288.774C1555.3 287.879 1553.71 288.023 1552.82 289.089C1551.92 290.159 1552.05 291.746 1553.12 292.641C1554.19 293.536 1555.77 293.392 1556.67 292.322ZM1579.48 311.461C1580.38 310.395 1580.23 308.799 1579.16 307.904C1578.1 307.012 1576.52 307.156 1575.62 308.223C1574.72 309.292 1574.86 310.879 1575.92 311.771C1576.99 312.666 1578.58 312.531 1579.48 311.461ZM1643.6 375.416C1644.49 374.346 1644.36 372.756 1643.29 371.861C1642.23 370.969 1640.64 371.11 1639.74 372.18C1638.85 373.246 1638.98 374.836 1640.05 375.728C1641.11 376.623 1642.7 376.482 1643.6 375.416ZM1631.68 365.009C1632.58 363.939 1632.44 362.35 1631.38 361.454C1630.32 360.565 1628.73 360.704 1627.83 361.773C1626.93 362.843 1627.07 364.436 1628.13 365.325C1629.2 366.22 1630.79 366.079 1631.68 365.009ZM1602.28 330.591C1603.17 329.525 1603.03 327.933 1601.97 327.04C1600.9 326.145 1599.32 326.289 1598.42 327.356C1597.53 328.426 1597.66 330.012 1598.73 330.907C1599.79 331.799 1601.38 331.661 1602.28 330.591ZM1550.06 277.038C1550.96 275.968 1550.83 274.388 1549.76 273.493C1548.69 272.598 1547.1 272.732 1546.21 273.802C1545.31 274.872 1545.45 276.465 1546.52 277.36C1547.58 278.255 1549.16 278.108 1550.06 277.038ZM1572.87 296.177C1573.77 295.107 1573.63 293.519 1572.56 292.623C1571.49 291.731 1569.91 291.872 1569.01 292.942C1568.12 294.011 1568.25 295.598 1569.31 296.49C1570.38 297.385 1571.97 297.247 1572.87 296.177ZM1623.82 351.233C1624.88 349.969 1624.87 348.219 1623.81 347.324C1622.75 346.435 1621.02 346.733 1619.96 347.997C1618.9 349.26 1618.91 351.01 1619.97 351.899C1621.03 352.794 1622.76 352.496 1623.82 351.233ZM1608.88 345.876C1609.78 344.806 1609.64 343.217 1608.58 342.321C1607.51 341.426 1605.93 341.573 1605.03 342.643C1604.13 343.713 1604.26 345.297 1605.33 346.192C1606.4 347.087 1607.98 346.946 1608.88 345.876ZM1599.29 357.308C1600.19 356.238 1600.05 354.649 1598.98 353.754C1597.92 352.858 1596.33 353.006 1595.44 354.076C1594.54 355.146 1594.67 356.725 1595.74 357.621C1596.81 358.516 1598.39 358.378 1599.29 357.308ZM1586.08 326.743C1586.98 325.673 1586.84 324.08 1585.77 323.188C1584.71 322.293 1583.12 322.437 1582.22 323.507C1581.33 324.577 1581.46 326.163 1582.53 327.059C1583.59 327.951 1585.18 327.813 1586.08 326.743ZM1569.88 322.897C1570.78 321.827 1570.64 320.232 1569.57 319.337C1568.51 318.444 1566.92 318.589 1566.02 319.659C1565.13 320.725 1565.26 322.311 1566.33 323.203C1567.39 324.099 1568.99 323.964 1569.88 322.897ZM1619.43 372.413L1621.66 372.804C1621 372.315 1620.18 372.192 1619.43 372.413ZM1576.49 338.175C1577.38 337.105 1577.24 335.513 1576.18 334.621C1575.11 333.725 1573.53 333.87 1572.63 334.939C1571.73 336.009 1571.87 337.592 1572.94 338.487C1574 339.38 1575.59 339.245 1576.49 338.175ZM1592.68 342.027C1593.58 340.958 1593.44 339.365 1592.38 338.473C1591.31 337.578 1589.72 337.722 1588.83 338.792C1587.93 339.858 1588.07 341.444 1589.13 342.34C1590.2 343.232 1591.79 343.094 1592.68 342.027ZM1540.47 288.47C1541.37 287.401 1541.24 285.817 1540.17 284.922C1539.1 284.027 1537.51 284.165 1536.61 285.235C1535.71 286.305 1535.86 287.897 1536.92 288.792C1537.99 289.688 1539.57 289.54 1540.47 288.47ZM1563.28 307.61C1564.18 306.54 1564.04 304.947 1562.97 304.052C1561.91 303.16 1560.32 303.304 1559.42 304.374C1558.52 305.444 1558.66 307.03 1559.72 307.922C1560.79 308.818 1562.38 308.68 1563.28 307.61ZM1547.08 303.758C1547.97 302.688 1547.84 301.102 1546.77 300.207C1545.71 299.311 1544.12 299.456 1543.22 300.525C1542.33 301.592 1542.46 303.178 1543.53 304.073C1544.6 304.969 1546.18 304.824 1547.08 303.758ZM1615.49 361.161C1616.38 360.091 1616.25 358.501 1615.18 357.606C1614.12 356.717 1612.53 356.855 1611.63 357.925C1610.73 358.991 1610.87 360.584 1611.93 361.473C1613 362.368 1614.59 362.227 1615.49 361.161Z" fill="white"/>
<path d="M199 464C199 460.134 195.867 457 192.001 457V459C194.762 459 197 461.238 197 464H199ZM192.001 471C195.867 471 199 467.866 199 464H197C197 466.762 194.762 469 192.001 469V471ZM185 464C185 467.866 188.137 471 192.001 471V469C189.241 469 187 466.761 187 464H185ZM192.001 457C188.137 457 185 460.134 185 464H187C187 461.239 189.241 459 192.001 459V457ZM440 433.501C440 426.596 434.402 421 427.5 421V423C433.297 423 438 427.701 438 433.501H440ZM427.5 446C434.401 446 440 440.404 440 433.501H438C438 439.299 433.297 444 427.5 444V446ZM415 433.501C415 440.404 420.595 446 427.5 446V444C421.7 444 417 439.299 417 433.501H415ZM427.5 421C420.595 421 415 426.596 415 433.501H417C417 427.7 421.7 423 427.5 423V421ZM470 272.499C470 269.462 467.537 267 464.499 267V269C466.433 269 468 270.567 468 272.499H470ZM464.499 278C467.538 278 470 275.538 470 272.499H468C468 274.433 466.433 276 464.499 276V278ZM459 272.499C459 275.537 461.462 278 464.499 278V276C462.567 276 461 274.433 461 272.499H459ZM464.499 267C461.462 267 459 269.462 459 272.499H461C461 270.567 462.567 269 464.499 269V267ZM555.502 374C557.433 374 559 375.567 559 377.5H561C561 374.463 558.538 372 555.502 372V374ZM552 377.5C552 375.568 553.569 374 555.502 374V372C552.466 372 550 374.462 550 377.5H552ZM555.502 381C553.569 381 552 379.432 552 377.5H550C550 380.538 552.466 383 555.502 383V381ZM559 377.5C559 379.433 557.433 381 555.502 381V383C558.538 383 561 380.537 561 377.5H559ZM591 410.5C591 405.254 586.743 401 581.498 401V403C585.639 403 589 406.359 589 410.5H591ZM581.498 420C586.743 420 591 415.746 591 410.5H589C589 414.641 585.639 418 581.498 418V420ZM572 410.5C572 415.746 576.253 420 581.498 420V418C577.358 418 574 414.641 574 410.5H572ZM581.498 401C576.253 401 572 405.254 572 410.5H574C574 406.359 577.358 403 581.498 403V401ZM571 290C572.658 290 574 291.342 574 293H576C576 290.237 573.763 288 571 288V290ZM568 293C568 291.342 569.342 290 571 290V288C568.237 288 566 290.237 566 293H568ZM571 296C569.342 296 568 294.655 568 293H566C566 295.759 568.237 298 571 298V296ZM574 293C574 294.655 572.658 296 571 296V298C573.763 298 576 295.759 576 293H574ZM271.5 477C278.404 477 284 482.597 284 489.501H286C286 481.492 279.509 475 271.5 475V477ZM259 489.501C259 482.597 264.599 477 271.5 477V475C263.494 475 257 481.492 257 489.501H259ZM271.5 502C264.599 502 259 496.403 259 489.501H257C257 497.508 263.495 504 271.5 504V502ZM284 489.501C284 496.403 278.404 502 271.5 502V504C279.508 504 286 497.508 286 489.501H284Z" fill="white"/>
<path fill-rule="evenodd" clip-rule="evenodd" d="M1926.38 -6.23326C1917.08 9.92442 1894.62 76.7819 1846.6 114.891C1799.62 152.176 1778.46 104.365 1687.36 93.7696C1585.2 81.8874 1628.85 21.7117 1637.1 -58.6331C1645.36 -138.978 1648.87 -103.842 1751.07 -91.9563C1853.27 -80.0704 1967.46 -77.5886 1926.38 -6.23326Z" fill="#3EC9FF"/>
<path fill-rule="evenodd" clip-rule="evenodd" d="M-204.294 452.348C-185.694 425.733 -136.519 313.189 -47.4193 254.347C39.7536 196.777 69.1448 282.87 225.528 314.975C400.907 350.98 316.016 448.744 289.43 586.817C262.844 724.89 262.108 663.435 86.6754 627.419C-88.7573 591.403 -286.432 569.886 -204.294 452.348Z" fill="#FF0042"/>
</g>
<defs>
<linearGradient id="paint0_linear" x1="2190.53" y1="448.301" x2="2119.89" y2="-129.935" gradientUnits="userSpaceOnUse">
<stop stop-color="#4649CD"/>
<stop offset="1" stop-color="#0090D6"/>
</linearGradient>
<linearGradient id="paint1_linear" x1="943.93" y1="598.464" x2="1188.26" y2="-159.739" gradientUnits="userSpaceOnUse">
<stop stop-color="#FB2059"/>
<stop offset="0.602402" stop-color="#8138E9"/>
<stop offset="1" stop-color="#12CAF9"/>
</linearGradient>
</defs>
</svg>
