<svg width="66" height="130" viewBox="0 0 66 130" fill="none" xmlns="http://www.w3.org/2000/svg">
<path fill-rule="evenodd" clip-rule="evenodd" d="M64.897 94.5369L64.897 95.0405L64.702 95.5048L57.3225 113.08L57.3225 129.413L52.3225 129.413L52.3225 112.576L52.3225 112.073L52.5174 111.609L59.897 94.0334L59.897 94.0172L59.897 93.958L59.897 93.8985L59.897 93.8386L59.897 93.7785L59.897 93.7181L59.897 93.6574L59.897 93.5964L59.897 93.5352L59.897 93.4736L59.897 93.4118L59.897 93.3496L59.897 93.2872L59.897 93.2245L59.897 93.1616L59.897 93.0983L59.897 93.0348L59.897 92.971L59.897 92.907L59.897 92.8427L59.897 92.7781L59.897 92.7132L59.897 92.648L59.897 92.5827L59.897 92.517L59.897 92.4511L59.897 92.3849L59.897 92.3184L59.897 92.2517L59.897 92.1847L59.897 92.1175L59.897 92.05L59.897 91.9823L59.897 91.9143L59.897 91.8461L59.897 91.7776L59.897 91.7089L59.897 91.6399L59.897 91.5707L59.897 91.5012L59.897 91.4315L59.897 91.3616L59.897 91.2914L59.897 91.221L59.897 91.1503L59.897 91.0794L59.897 91.0083L59.897 90.9369L59.897 90.8653L59.897 90.7935L59.897 90.7214L59.897 90.6491L59.897 90.5766L59.897 90.5039L59.897 90.431L59.897 90.3578L59.897 90.2844L59.897 90.2108L59.897 90.1369L59.897 90.0629L59.897 89.9886L59.897 89.9142L59.897 89.8395L59.897 89.7646L59.897 89.6895L59.897 89.6141L59.897 89.5386L59.897 89.4629L59.897 89.387L59.897 89.3108L59.897 89.2345L59.897 89.158L59.897 89.0812L59.897 89.0043L59.897 88.9272L59.897 88.8499L59.897 88.7724L59.897 88.6947L59.897 88.6168L59.897 88.5387L59.897 88.4604L59.897 88.382L59.897 88.3033L59.897 88.2245L59.897 88.1455L59.897 88.0663L59.897 87.987L59.897 87.9074L59.897 87.8277L59.897 87.7478L59.897 87.6677L59.897 87.5875L59.897 87.5071L59.897 87.4265L59.897 87.3458L59.897 87.2649L59.897 87.1838L59.897 87.1026L59.897 87.0212L59.897 86.9396L59.897 86.8579L59.897 86.776L59.897 86.694L59.897 86.6118L59.897 86.5294L59.897 86.4469L59.897 86.3643L59.897 86.2815L59.897 86.1985L59.897 86.1154L59.897 86.0322L59.897 85.9488L59.897 85.8653L59.897 85.7816L59.897 85.6978L59.897 85.6138L59.897 85.5297L59.897 85.4455L59.897 85.3611L59.897 85.2767L59.897 85.192L59.897 85.1073L59.897 85.0224L59.897 84.9374L59.897 84.8522L59.897 84.767L59.897 84.6816L59.897 84.5961L59.897 84.5104L59.897 84.4247L59.897 84.3388L59.897 84.2528L59.897 84.1667L59.897 84.0805L59.897 83.9942L59.897 83.9077L59.897 83.8212L59.897 83.7345L59.897 83.6477L59.897 83.5609L59.897 83.4739L59.897 83.3868L59.897 83.2996L59.897 83.2123L59.897 83.1249L59.897 83.0375L59.897 82.9499L59.897 82.8622L59.897 82.7744L59.897 82.6866L59.897 82.5986L59.897 82.5106L59.897 82.4225L59.897 82.3343L59.897 82.246L59.897 82.1576L59.897 82.0691L59.897 81.9806L59.897 81.8919L59.897 81.8032L59.897 81.7144L59.897 81.6256L59.897 81.5367L59.897 81.4476L59.897 81.3586L59.897 81.2694L59.897 81.1802L59.897 81.0909L59.897 81.0016L59.897 80.9122L59.897 80.8227L59.897 80.7331L59.897 80.6435L59.897 80.5539L59.897 80.4642L59.897 80.3744L59.897 80.2846L59.897 80.1947L59.897 80.1048L59.897 80.0148L59.897 79.9247L59.897 79.8346L59.897 79.7445L59.897 79.6543L59.897 79.5641L59.897 79.4739L59.897 79.3836L59.897 79.2932L59.897 79.2028L59.897 79.1124L59.897 79.022L59.897 78.9315L59.897 78.841L59.897 78.7504L59.897 78.6598L59.897 78.5692L59.897 78.4786L59.897 78.3879L59.897 78.2972L59.897 78.2065L59.897 78.1158L59.897 78.025L59.897 77.9342L59.897 77.8434L59.897 77.7526L59.897 77.6618L59.897 77.5709L59.897 77.4801L59.897 77.3892L59.897 77.2984L59.897 77.2075L59.897 77.1166L59.897 77.0257L59.897 76.9348L59.897 76.8439L59.897 76.753L59.897 76.6621L59.897 76.5712L59.897 76.4803L59.897 76.3894L59.897 76.2985L59.897 76.2076L59.897 76.1168L59.897 76.0259L59.897 75.935L59.897 75.8442L59.897 75.7534L59.897 75.6626L59.897 75.5718L59.897 75.481L59.897 75.3902L59.897 75.2995L59.897 75.2088L59.897 75.1181L59.897 75.0274L59.897 74.9368L59.897 74.8462L59.897 74.7556L59.897 74.665L59.897 74.5745L59.897 74.484L59.897 74.3936L59.897 74.3031L59.897 74.2128L59.897 74.1224L59.897 74.0321L59.897 73.9419L59.897 73.8516L59.897 73.7615L59.897 73.6713L59.897 73.5813L59.897 73.4912L59.897 73.4012L59.897 73.3113L59.897 73.2214L59.897 73.1316L59.897 73.0418L59.897 72.9521L59.897 72.8624L59.897 72.7728L59.897 72.6833L59.897 72.5938L59.897 72.5044L59.897 72.4151L59.897 72.3258L59.897 72.2366L59.897 72.1474L59.897 72.0583L59.897 71.9693L59.897 71.8804L59.897 71.7915L59.897 71.7028L59.897 71.614L59.897 71.5254L59.897 71.4369L59.897 71.3484L59.897 71.26L59.897 71.1717L59.897 71.0835L59.897 70.9954L59.897 70.9073L59.897 70.8194L59.897 70.7315L59.897 70.6438L59.897 70.5561L59.897 70.4685L59.897 70.381L59.897 70.2937L59.897 70.2064L59.897 70.1192L59.897 70.0321L59.897 69.9451L59.897 69.8582L59.897 69.7715L59.897 69.6848L59.897 69.5983L59.897 69.5118L59.897 69.4255L59.897 69.3393L59.897 69.2532L59.897 69.1672L59.897 69.0813L59.897 68.9956L59.897 68.9099L59.897 68.8244L59.897 68.739L59.897 68.6538L59.897 68.5686L59.897 68.4836L59.897 68.3987L59.897 68.314L59.897 68.2293L59.897 68.1448L59.897 68.0605L59.897 67.9763L59.897 67.8922L59.897 67.8082L59.897 67.7244L59.897 67.6407L59.897 67.5572L59.897 67.4738L59.897 67.3906L59.897 67.3075L59.897 67.2245L59.897 67.1417L59.897 67.0591L59.897 66.9766L59.897 66.8942L59.897 66.812L59.897 66.73L59.897 66.6481L59.897 66.5664L59.897 66.4848L59.897 66.4034L59.897 66.3222L59.897 66.2411L59.897 66.1602L59.897 66.0795L59.897 65.9989L59.897 65.9185L59.897 65.8382L59.897 65.7582L59.897 65.6783L59.897 65.5986L59.897 65.519L59.897 65.4397L59.897 65.3605L59.897 65.2815L59.897 65.2027L59.897 65.124L59.897 65.0456L59.897 64.9673L59.897 64.8892L59.897 64.8113L59.897 64.7336L59.897 64.6561L59.897 64.5788L59.897 64.5017L59.897 64.4247L59.897 64.348L59.897 64.2715L59.897 64.1951L59.897 64.119L59.897 64.0431L59.897 63.9674L59.897 63.8918L59.897 63.8165L59.897 63.7414L59.897 63.6665L59.897 63.5918L59.897 63.5174L59.897 63.4431L59.897 63.369L59.897 63.2952L59.897 63.2216L59.897 63.1482L59.897 63.075L59.897 63.0021L59.897 62.9293L59.897 62.8568L59.897 62.7846L59.897 62.7125L59.897 62.6407L59.897 62.5691L59.897 62.4977L59.897 62.4266L59.897 62.3557L59.897 62.285L59.897 62.2146L59.897 62.1444L59.897 62.0745L59.897 62.0048L59.897 61.9353L59.897 61.8661L59.897 61.7971L59.897 61.7284L59.897 61.6599L59.897 61.5917L59.897 61.5237L59.897 61.4559L59.897 61.3885L59.897 61.3212L59.897 61.2543L59.897 61.1876L59.897 61.1211L59.897 61.0549L59.897 60.989L59.897 60.9233L59.897 60.8579L59.897 60.7928L59.897 60.7279L59.897 60.6633L59.897 60.599L59.897 60.5349L59.897 60.4712L59.897 60.4076L59.897 60.3444L59.897 60.2814L59.897 60.2188L59.897 60.1563L59.897 60.0942L59.897 60.0324L59.897 59.9708L59.897 59.9096L59.897 59.8486L59.897 59.7879L59.897 59.7275L59.897 59.6673L59.897 59.6075L59.897 59.548L59.897 59.4887L59.897 59.4298L59.897 59.3711L59.897 59.3128L59.897 59.2548L59.897 59.197L59.897 59.1396L59.897 59.0824L59.897 59.0256L59.897 58.9691L59.897 58.9128L59.897 58.8569L59.897 58.8013L59.897 58.746L59.897 58.6911L59.897 58.6364L59.897 58.5821L59.897 58.5281L59.897 58.4743L59.897 58.421L59.897 58.3679L59.897 58.3152L59.897 58.2628L59.897 58.2107L59.897 58.1589L59.897 58.1075L59.897 58.0564L59.897 58.0056L59.897 57.9552L59.897 57.9051L59.897 57.8553L59.897 57.8059L59.897 57.7568L59.897 57.7081L59.897 57.6596L59.897 57.6116L59.897 57.5639L59.897 57.5165L59.897 57.4695L59.897 57.4228L59.897 57.3764L59.897 57.3305L59.897 57.2848L59.897 57.2396L59.897 57.1946L59.897 57.1501L59.897 57.1059L59.897 57.062L59.897 57.0186L59.897 56.9754L59.897 56.9327L59.897 56.8903L59.897 56.8482L59.897 56.8066L59.897 56.7653L59.897 56.7244L59.897 56.6838L59.897 56.6437L59.897 56.6038L59.897 56.5644L59.897 56.5254L59.897 56.4867L59.897 56.4484L59.897 56.4105L59.897 56.373L59.897 56.3358L59.897 56.2991L59.897 56.2627L59.897 56.2267L59.897 56.1911L59.897 56.1559L59.897 56.1211L59.897 56.0867L59.897 56.0527C59.897 53.6119 59.0611 51.9837 58.2266 51.335C57.8576 51.0481 57.4511 50.9094 56.9441 50.941C56.5848 50.9634 56.1023 51.0779 55.5 51.3826L55.5 72.9992L50.5 72.9992L50.5 54.9087L50.5 50.9992L50.5 49.9992C50.5 47.6708 50.3554 45.9192 50.0782 44.6309C49.7977 43.3269 49.4288 42.725 49.1606 42.4524C48.8946 42.1821 48.226 41.7811 46.0976 42.2864L46.0976 73.0149L41.0976 73.0149L41.0976 40.5438L41.0979 40.5438L41.0979 40.4184C41.0979 39.1602 41.0789 37.4497 40.6333 36.0814C40.4193 35.4244 40.1636 35.0363 39.9328 34.8263C39.7568 34.6662 39.485 34.5 38.8981 34.5C38.1471 34.5 37.7676 34.6768 37.5687 34.8139C37.3575 34.9595 37.1543 35.1966 36.9753 35.6037C36.5728 36.5192 36.5 37.7811 36.5 38.9992L36.5 39.9992L36.5 42.6367L36.5 72.9992L31.5 72.9992L31.5 40.8144C30.3312 40.5174 29.5605 40.5263 29.083 40.621C28.5152 40.7335 28.2148 40.9907 27.9801 41.3574C27.6951 41.8026 27.4974 42.4504 27.3927 43.2337C27.2975 43.9462 27.2982 44.5979 27.2988 45.1144L27.2988 45.1144L27.2989 45.229L27.2989 82.5106L27.2989 85.0106L24.7989 85.0106C22.8473 85.0106 21.2797 84.1805 20.0174 83.05C18.8146 81.9727 17.7837 80.5297 16.8293 79.0645C13.4576 73.8877 10.6313 72.0161 9.05671 71.5125C8.96103 71.4819 8.87246 71.4569 8.79074 71.4368C8.92467 71.8537 9.09682 72.3515 9.30443 72.9235C9.87568 74.4974 10.6691 76.5066 11.5494 78.6891C12.009 79.8287 12.493 81.0168 12.9783 82.2083C14.3176 85.4964 15.6675 88.8105 16.5464 91.2025L25.917 112.783L26.1238 113.26L26.1238 113.779L26.1238 129.413L21.1238 129.413L21.1238 114.298L11.9312 93.1274L11.9021 93.0603L11.877 92.9917C11.032 90.6853 9.7241 87.4742 8.3848 84.1861L8.38442 84.1851L8.3828 84.1812L8.38196 84.1791C7.88916 82.9692 7.39212 81.7489 6.91237 80.5594C6.03025 78.3724 5.20814 76.2927 4.60445 74.6294C4.30343 73.8001 4.04507 73.0426 3.8588 72.4106C3.7038 71.8847 3.4998 71.1363 3.4998 70.4843C3.4998 68.7235 4.61923 67.3843 6.04712 66.7753C7.41778 66.1908 9.02089 66.2514 10.58 66.7501C13.7052 67.7498 17.3411 70.6888 21.019 76.3357C21.4897 77.0583 21.9102 77.6623 22.2989 78.1612L22.2989 45.229L22.2986 45.1059C22.2974 44.5937 22.2949 43.6328 22.4368 42.5715C22.5886 41.4351 22.9288 39.9743 23.7691 38.6616C24.6597 37.2704 26.0721 36.1205 28.1108 35.7164C29.2188 35.4968 30.4308 35.5133 31.7503 35.7538C31.8833 35.0401 32.0868 34.2996 32.398 33.5915C32.8561 32.5495 33.5837 31.4878 34.7315 30.6969C35.8916 29.8974 37.2993 29.5 38.8981 29.5C40.6611 29.5 42.1518 30.0854 43.2976 31.128C44.3886 32.1206 45.0141 33.3862 45.3876 34.5331C45.6767 35.4211 45.8483 36.3498 45.95 37.2188C48.4628 36.7942 50.8814 37.0723 52.7245 38.9455C53.9257 40.1662 54.5855 41.8091 54.9663 43.5793C55.1352 44.364 55.2587 45.2194 55.3441 46.1424C55.7724 46.0421 56.2024 45.9775 56.6331 45.9506C58.4036 45.8403 60.0026 46.3826 61.2953 47.3874C63.7843 49.3223 64.897 52.7208 64.897 56.0527L64.897 56.0867L64.897 56.1211L64.897 56.1559L64.897 56.1911L64.897 56.2267L64.897 56.2627L64.897 56.2991L64.897 56.3358L64.897 56.373L64.897 56.4105L64.897 56.4484L64.897 56.4867L64.897 56.5254L64.897 56.5644L64.897 56.6038L64.897 56.6437L64.897 56.6838L64.897 56.7244L64.897 56.7653L64.897 56.8066L64.897 56.8482L64.897 56.8903L64.897 56.9327L64.897 56.9754L64.897 57.0186L64.897 57.062L64.897 57.1059L64.897 57.1501L64.897 57.1946L64.897 57.2396L64.897 57.2848L64.897 57.3305L64.897 57.3764L64.897 57.4228L64.897 57.4695L64.897 57.5165L64.897 57.5639L64.897 57.6116L64.897 57.6596L64.897 57.7081L64.897 57.7568L64.897 57.8059L64.897 57.8553L64.897 57.9051L64.897 57.9552L64.897 58.0056L64.897 58.0564L64.897 58.1075L64.897 58.1589L64.897 58.2107L64.897 58.2628L64.897 58.3152L64.897 58.3679L64.897 58.421L64.897 58.4743L64.897 58.5281L64.897 58.5821L64.897 58.6364L64.897 58.6911L64.897 58.746L64.897 58.8013L64.897 58.8569L64.897 58.9128L64.897 58.9691L64.897 59.0256L64.897 59.0824L64.897 59.1396L64.897 59.197L64.897 59.2548L64.897 59.3128L64.897 59.3711L64.897 59.4298L64.897 59.4887L64.897 59.548L64.897 59.6075L64.897 59.6673L64.897 59.7275L64.897 59.7879L64.897 59.8486L64.897 59.9096L64.897 59.9708L64.897 60.0324L64.897 60.0942L64.897 60.1563L64.897 60.2188L64.897 60.2814L64.897 60.3444L64.897 60.4076L64.897 60.4712L64.897 60.5349L64.897 60.599L64.897 60.6633L64.897 60.7279L64.897 60.7928L64.897 60.8579L64.897 60.9233L64.897 60.989L64.897 61.0549L64.897 61.1211L64.897 61.1876L64.897 61.2543L64.897 61.3212L64.897 61.3885L64.897 61.4559L64.897 61.5237L64.897 61.5917L64.897 61.6599L64.897 61.7284L64.897 61.7971L64.897 61.8661L64.897 61.9353L64.897 62.0048L64.897 62.0745L64.897 62.1444L64.897 62.2146L64.897 62.285L64.897 62.3557L64.897 62.4266L64.897 62.4977L64.897 62.5691L64.897 62.6407L64.897 62.7125L64.897 62.7846L64.897 62.8568L64.897 62.9293L64.897 63.0021L64.897 63.075L64.897 63.1482L64.897 63.2216L64.897 63.2952L64.897 63.369L64.897 63.4431L64.897 63.5174L64.897 63.5918L64.897 63.6665L64.897 63.7414L64.897 63.8165L64.897 63.8918L64.897 63.9674L64.897 64.0431L64.897 64.119L64.897 64.1952L64.897 64.2715L64.897 64.348L64.897 64.4247L64.897 64.5017L64.897 64.5788L64.897 64.6561L64.897 64.7336L64.897 64.8113L64.897 64.8892L64.897 64.9673L64.897 65.0456L64.897 65.124L64.897 65.2027L64.897 65.2815L64.897 65.3605L64.897 65.4397L64.897 65.519L64.897 65.5986L64.897 65.6783L64.897 65.7582L64.897 65.8382L64.897 65.9185L64.897 65.9989L64.897 66.0795L64.897 66.1602L64.897 66.2411L64.897 66.3222L64.897 66.4034L64.897 66.4848L64.897 66.5664L64.897 66.6481L64.897 66.73L64.897 66.812L64.897 66.8942L64.897 66.9766L64.897 67.0591L64.897 67.1417L64.897 67.2245L64.897 67.3075L64.897 67.3906L64.897 67.4738L64.897 67.5572L64.897 67.6407L64.897 67.7244L64.897 67.8082L64.897 67.8922L64.897 67.9763L64.897 68.0605L64.897 68.1448L64.897 68.2293L64.897 68.314L64.897 68.3987L64.897 68.4836L64.897 68.5686L64.897 68.6538L64.897 68.739L64.897 68.8244L64.897 68.9099L64.897 68.9956L64.897 69.0813L64.897 69.1672L64.897 69.2532L64.897 69.3393L64.897 69.4255L64.897 69.5118L64.897 69.5983L64.897 69.6848L64.897 69.7715L64.897 69.8582L64.897 69.9451L64.897 70.0321L64.897 70.1192L64.897 70.2064L64.897 70.2937L64.897 70.381L64.897 70.4685L64.897 70.5561L64.897 70.6438L64.897 70.7315L64.897 70.8194L64.897 70.9073L64.897 70.9954L64.897 71.0835L64.897 71.1717L64.897 71.26L64.897 71.3484L64.897 71.4369L64.897 71.5254L64.897 71.614L64.897 71.7028L64.897 71.7915L64.897 71.8804L64.897 71.9693L64.897 72.0583L64.897 72.1474L64.897 72.2366L64.897 72.3258L64.897 72.4151L64.897 72.5044L64.897 72.5938L64.897 72.6833L64.897 72.7728L64.897 72.8624L64.897 72.9521L64.897 73.0418L64.897 73.1316L64.897 73.2214L64.897 73.3113L64.897 73.4012L64.897 73.4912L64.897 73.5813L64.897 73.6713L64.897 73.7615L64.897 73.8516L64.897 73.9419L64.897 74.0321L64.897 74.1224L64.897 74.2128L64.897 74.3031L64.897 74.3936L64.897 74.484L64.897 74.5745L64.897 74.665L64.897 74.7556L64.897 74.8462L64.897 74.9368L64.897 75.0274L64.897 75.1181L64.897 75.2088L64.897 75.2995L64.897 75.3902L64.897 75.481L64.897 75.5718L64.897 75.6626L64.897 75.7534L64.897 75.8442L64.897 75.935L64.897 76.0259L64.897 76.1168L64.897 76.2076L64.897 76.2985L64.897 76.3894L64.897 76.4803L64.897 76.5712L64.897 76.6621L64.897 76.753L64.897 76.8439L64.897 76.9348L64.897 77.0257L64.897 77.1166L64.897 77.2075L64.897 77.2984L64.897 77.3892L64.897 77.4801L64.897 77.5709L64.897 77.6618L64.897 77.7526L64.897 77.8434L64.897 77.9342L64.897 78.025L64.897 78.1158L64.897 78.2065L64.897 78.2972L64.897 78.3879L64.897 78.4786L64.897 78.5692L64.897 78.6598L64.897 78.7504L64.897 78.841L64.897 78.9315L64.897 79.022L64.897 79.1124L64.897 79.2028L64.897 79.2932L64.897 79.3836L64.897 79.4739L64.897 79.5641L64.897 79.6543L64.897 79.7445L64.897 79.8346L64.897 79.9247L64.897 80.0148L64.897 80.1048L64.897 80.1947L64.897 80.2846L64.897 80.3744L64.897 80.4642L64.897 80.5539L64.897 80.6435L64.897 80.7331L64.897 80.8227L64.897 80.9122L64.897 81.0016L64.897 81.0909L64.897 81.1802L64.897 81.2694L64.897 81.3586L64.897 81.4476L64.897 81.5367L64.897 81.6256L64.897 81.7144L64.897 81.8032L64.897 81.8919L64.897 81.9806L64.897 82.0691L64.897 82.1576L64.897 82.246L64.897 82.3343L64.897 82.4225L64.897 82.5106L64.897 82.5986L64.897 82.6866L64.897 82.7744L64.897 82.8622L64.897 82.9499L64.897 83.0375L64.897 83.1249L64.897 83.2123L64.897 83.2996L64.897 83.3868L64.897 83.4739L64.897 83.5609L64.897 83.6477L64.897 83.7345L64.897 83.8212L64.897 83.9077L64.897 83.9942L64.897 84.0805L64.897 84.1667L64.897 84.2528L64.897 84.3388L64.897 84.4247L64.897 84.5104L64.897 84.5961L64.897 84.6816L64.897 84.767L64.897 84.8522L64.897 84.9374L64.897 85.0224L64.897 85.1073L64.897 85.192L64.897 85.2767L64.897 85.3611L64.897 85.4455L64.897 85.5297L64.897 85.6138L64.897 85.6978L64.897 85.7816L64.897 85.8653L64.897 85.9488L64.897 86.0322L64.897 86.1154L64.897 86.1985L64.897 86.2815L64.897 86.3643L64.897 86.4469L64.897 86.5294L64.897 86.6118L64.897 86.694L64.897 86.776L64.897 86.8579L64.897 86.9396L64.897 87.0212L64.897 87.1026L64.897 87.1838L64.897 87.2649L64.897 87.3458L64.897 87.4265L64.897 87.5071L64.897 87.5875L64.897 87.6677L64.897 87.7478L64.897 87.8277L64.897 87.9074L64.897 87.987L64.897 88.0663L64.897 88.1455L64.897 88.2245L64.897 88.3033L64.897 88.382L64.897 88.4604L64.897 88.5387L64.897 88.6168L64.897 88.6947L64.897 88.7724L64.897 88.8499L64.897 88.9272L64.897 89.0043L64.897 89.0812L64.897 89.158L64.897 89.2345L64.897 89.3108L64.897 89.387L64.897 89.4629L64.897 89.5386L64.897 89.6141L64.897 89.6895L64.897 89.7646L64.897 89.8395L64.897 89.9142L64.897 89.9886L64.897 90.0629L64.897 90.1369L64.897 90.2108L64.897 90.2844L64.897 90.3578L64.897 90.431L64.897 90.5039L64.897 90.5766L64.897 90.6491L64.897 90.7214L64.897 90.7935L64.897 90.8653L64.897 90.9369L64.897 91.0083L64.897 91.0794L64.897 91.1503L64.897 91.221L64.897 91.2914L64.897 91.3616L64.897 91.4315L64.897 91.5012L64.897 91.5707L64.897 91.6399L64.897 91.7089L64.897 91.7776L64.897 91.8461L64.897 91.9143L64.897 91.9823L64.897 92.05L64.897 92.1175L64.897 92.1847L64.897 92.2517L64.897 92.3184L64.897 92.3849L64.897 92.4511L64.897 92.517L64.897 92.5827L64.897 92.648L64.897 92.7132L64.897 92.7781L64.897 92.8427L64.897 92.907L64.897 92.971L64.897 93.0348L64.897 93.0983L64.897 93.1616L64.897 93.2245L64.897 93.2872L64.897 93.3496L64.897 93.4118L64.897 93.4736L64.897 93.5352L64.897 93.5964L64.897 93.6574L64.897 93.7181L64.897 93.7785L64.897 93.8386L64.897 93.8985L64.897 93.958L64.897 94.0172L64.897 94.0762L64.897 94.1348L64.897 94.1932L64.897 94.2512L64.897 94.309L64.897 94.3664L64.897 94.4236L64.897 94.4804L64.897 94.5369Z" fill="#2F80ED"/>
<path d="M40 21V0" stroke="#FF4033" stroke-width="5"/>
<path d="M57 26L63 13" stroke="#FF4033" stroke-width="5"/>
<path d="M26.1004 24.8061L18 13" stroke="#FF4033" stroke-width="5"/>
<path d="M13.8401 37.0505L2 29" stroke="#FF4033" stroke-width="5"/>
</svg>
