<svg width="104" height="102" viewBox="0 0 104 102" fill="none" xmlns="http://www.w3.org/2000/svg">
<path fill-rule="evenodd" clip-rule="evenodd" d="M85.1321 46.8091L83.9273 46.1465L82.7225 46.8091L65.7952 56.1191L64.5 56.8315V58.3097V77.7761V79.2543L65.7952 79.9666L82.7225 89.2766L83.9273 89.9393L85.1321 89.2766L102.059 79.9666L103.355 79.2543V77.7761V58.3097V56.8315L102.059 56.1191L85.1321 46.8091ZM69.5 73.5473V59.7879L81.428 53.2275V66.9869L69.5 73.5473ZM72.1871 77.7758L83.9273 84.2329L95.6674 77.7759L83.9271 71.3188L72.1871 77.7758ZM98.3546 73.5475V59.7879L86.428 53.2282V66.9879L98.3546 73.5475Z" fill="#FF4033"/>
<path fill-rule="evenodd" clip-rule="evenodd" d="M45 12C45 15.866 41.866 19 38 19C34.134 19 31 15.866 31 12C31 8.13401 34.134 5 38 5C41.866 5 45 8.13401 45 12ZM50 12C50 18.6274 44.6274 24 38 24C31.3726 24 26 18.6274 26 12C26 5.37258 31.3726 0 38 0C44.6274 0 50 5.37258 50 12ZM2.5 26.5H0V29V34.5V36.5495L2.00971 36.9515L24.7311 41.4957L17.5193 99.1899L17.168 102H20H27.5H29.3348L29.885 100.25L38.5 72.8382L47.115 100.25L47.6652 102H49.5H57H59.832L59.4807 99.1899L52.2711 41.5129L75.9721 36.955L78 36.565V34.5V29V26.5H75.5H2.5ZM5 32.4505V31.5H73V32.435L49.0279 37.045L46.7289 37.4871L47.0193 39.8101L54.168 97H51.3348L40.885 63.7504L38.5 56.1618L36.115 63.7504L25.6652 97H22.832L29.9807 39.8101L30.2689 37.5043L27.9903 37.0485L5 32.4505Z" fill="#2F80ED"/>
</svg>
