<svg width="129" height="136" viewBox="0 0 129 136" fill="none" xmlns="http://www.w3.org/2000/svg">
<path fill-rule="evenodd" clip-rule="evenodd" d="M53.789 44.4394L52.837 46.4911C50.45 51.2337 48.4519 55.3436 47.2166 57.8866L34.6753 56.5335C35.3336 54.6188 36.6353 52.3611 38.9371 50.3004C41.8532 47.6897 46.5146 45.2782 53.789 44.4394ZM30.7943 62.1496L46.7816 63.8745L46.8522 63.9406L41.2325 69.128L38.8865 71.2935L41.1936 73.5004L55.1842 86.8826L57.3045 88.9107L59.3792 86.836L65.1538 81.0614L65.3969 81.2888L67.0467 97.7872L67.3263 100.584L70.1352 100.487C73.8852 100.358 79.0883 98.513 83.3981 93.774C87.5315 89.2289 90.6927 82.1996 91.2186 71.8497C96.296 69.0148 101.466 65.5606 106.256 61.2436C119.235 49.5465 129.325 31.661 128.384 3.10614L128.296 0.431104L125.628 0.214801C110.11 -1.04339 75.4478 2.19869 57.1025 38.1734C46.649 38.5896 39.5391 41.7082 34.935 45.8301C30.1625 50.1027 28.2774 55.2912 28.1188 59.0401L28 61.8481L30.7943 62.1496ZM56.1171 72.6077L60.7697 76.9602L57.2112 80.5187L47.6481 71.3713L51.1861 68.1055L56.1171 72.6077ZM68.3733 75.6735C69.0039 75.4153 69.6504 75.1525 70.3113 74.8838L70.3158 74.882L70.3186 74.8808L70.3204 74.8801L70.3236 74.8788C71.0448 74.5856 71.783 74.2855 72.536 73.977L85.976 67.8679C91.4722 64.9912 97.0885 61.4287 102.239 56.7865C110.163 49.6451 117.033 39.882 120.342 25.9429C109.906 21.8957 104.311 13.8042 102.064 8.34344C88.1192 12.0658 72.5054 21.0626 62.3667 41.0583L62.3577 41.076L62.3485 41.0936C60.9031 43.8532 59.5172 46.5649 58.2435 49.0944L52.6504 61.1486L60.1893 68.2011L67.1883 74.5915L68.3733 75.6735ZM74.7797 79.5479L71.406 81.0814L72.6929 93.9502C74.6127 93.3068 76.8806 92.0228 78.9592 89.7372C81.5712 86.865 84.0005 82.2744 84.9138 75.108C81.3186 76.8326 77.8789 78.2808 74.7797 79.5479ZM122.442 6.0383C118.409 5.89272 113.448 6.09621 108.038 7.0334C109.928 11.0335 114.11 16.7186 121.502 19.9325C122.146 15.6628 122.478 11.0431 122.442 6.0383Z" fill="#2F80ED"/>
<path d="M45.4294 107.208C39.6693 101.254 39.8267 91.7581 45.7808 85.998" stroke="#FF4033" stroke-width="6"/>
<path d="M33.4294 123.209C27.6693 117.255 27.8267 107.759 33.7808 101.999" stroke="#FF4033" stroke-width="6"/>
<path d="M32.2125 89.5213C26.4016 95.4257 16.9044 95.5014 11 89.6904" stroke="#FF4033" stroke-width="6"/>
<path d="M11.0933 133.185C7.72814 129.82 7.72814 124.364 11.0933 120.999" stroke="#FF4033" stroke-width="6"/>
<path d="M20.1862 106.093C16.8211 109.458 11.3651 109.458 8 106.093" stroke="#FF4033" stroke-width="6"/>
<circle cx="90.5195" cy="38.5" r="12" stroke="#FF4033" stroke-width="6"/>
</svg>
