<svg width="88" height="79" viewBox="0 0 88 79" fill="none" xmlns="http://www.w3.org/2000/svg">
<path d="M49 18V40.1053L36 53" stroke="#FF4033" stroke-width="5"/>
<path fill-rule="evenodd" clip-rule="evenodd" d="M48.5002 5.5C67.2779 5.5 82.5002 20.7223 82.5002 39.5C82.5002 58.2777 67.2779 73.5 48.5002 73.5C29.7225 73.5 14.5002 58.2777 14.5002 39.5L14.5002 39.4998L14.5002 39.4943L14.5003 39.4676L14.501 39.3538C14.5019 39.2518 14.5036 39.099 14.507 38.9014C14.514 38.5061 14.5279 37.9329 14.556 37.2321C14.5677 36.9385 14.5819 36.6234 14.599 36.2901L19.6021 42.127L23.3983 38.873L14.3983 28.373L12.686 26.3752L10.7783 28.1875L0.77832 37.6875L4.22207 41.3125L9.59691 36.2064C9.58256 36.4968 9.57036 36.7728 9.55998 37.0322C9.53026 37.7751 9.51532 38.3859 9.50781 38.8136C9.50406 39.0275 9.50215 39.1959 9.50119 39.3123C9.5007 39.3706 9.50046 39.4158 9.50033 39.4474L9.50021 39.4843L9.5002 39.4948L9.50019 39.498L9.50019 39.4992V39.4996C9.50019 39.4998 9.50019 39.4999 12.0002 39.5L9.50019 39.4999V39.5C9.50019 61.0391 26.9611 78.5 48.5002 78.5C70.0393 78.5 87.5002 61.0391 87.5002 39.5C87.5002 17.9609 70.0393 0.5 48.5002 0.5V5.5ZM59.2324 23.2322L65.2324 17.2322L68.768 20.7678L62.768 26.7678L59.2324 23.2322ZM62.768 49.2322L69.768 56.2322L66.2324 59.7678L59.2324 52.7678L62.768 49.2322ZM66.0002 35.5H75.0002V40.5H66.0002V35.5ZM46.5002 57V67H51.5002V57H46.5002Z" fill="#2F80ED"/>
</svg>
