<svg width="360" height="480" viewBox="0 0 360 480" fill="none" xmlns="http://www.w3.org/2000/svg">
<g clip-path="url(#clip0)">
<g filter="url(#filter0_d)">
<rect width="360" height="480" rx="15" fill="url(#paint0_linear)"/>
</g>
<rect x="84" y="436" width="60" height="4" fill="#DEDEDE"/>
<rect x="150" y="436" width="60" height="4" fill="#F4F4F4"/>
<rect x="216" y="436" width="60" height="4" fill="#F4F4F4"/>
<mask id="mask0" mask-type="alpha" maskUnits="userSpaceOnUse" x="180" y="124" width="52" height="269">
<path fill-rule="evenodd" clip-rule="evenodd" d="M180.05 124.282H231.151V392.906H180.05V124.282Z" fill="white"/>
</mask>
<g mask="url(#mask0)">
<path fill-rule="evenodd" clip-rule="evenodd" d="M231.127 146.76C231.127 147.04 231.109 147.32 231.076 147.585C230.952 148.904 230.757 151.541 230.477 155.181C230.353 157.048 230.197 159.174 230.037 161.531C229.914 163.253 229.79 165.084 229.649 167.017C229.525 168.564 229.42 170.163 229.296 171.819C229.176 173.435 229.053 175.106 228.911 176.829C228.806 178.343 228.7 179.89 228.559 181.471C227.047 201.204 224.937 225.383 222.387 242.987C220.011 260.133 221.192 264.968 221.192 264.968L220.4 339.268L218.184 389.686L218.027 392.907H195.094C195.094 392.907 195.058 391.727 194.989 389.686C194.513 376.201 192.719 324.921 192.719 323.004C192.719 320.803 191.153 279.477 191.153 278.158C191.153 276.84 186.794 217.489 186.794 217.489L180.077 162.533L178.417 123.745C177.677 121.246 194.273 124.097 206.566 124.028C210.33 124.01 213.966 123.444 217.061 123.745C222.267 124.217 225.258 123.644 225.258 123.644C225.258 123.644 230.916 137.475 231.145 145.475C231.16 145.914 231.145 146.336 231.127 146.76Z" fill="#2F3676"/>
<path fill-rule="evenodd" clip-rule="evenodd" d="M231.127 146.76C231.127 147.04 231.109 147.32 231.076 147.585C230.952 148.904 230.757 151.541 230.477 155.181C230.353 157.048 230.197 159.174 230.037 161.531C229.914 163.253 229.79 165.084 229.649 167.017C229.525 168.564 229.42 170.163 229.296 171.819C229.176 173.435 229.053 175.106 228.911 176.829C228.806 178.343 228.7 179.89 228.559 181.471C227.047 201.204 224.937 225.383 222.387 242.987C220.011 260.133 221.192 264.968 221.192 264.968L220.4 339.268L218.184 389.686L218.027 392.907H195.094C195.094 392.907 195.058 391.727 194.989 389.686C194.513 376.201 192.719 324.921 192.719 323.004C192.719 320.803 191.153 279.477 191.153 278.158C191.153 276.84 186.794 217.489 186.794 217.489L180.077 162.533L178.417 123.745C177.677 121.246 194.273 124.097 206.566 124.028C210.33 124.01 213.966 123.444 217.061 123.745C222.267 124.217 225.258 123.644 225.258 123.644C225.258 123.644 230.916 137.475 231.145 145.475C231.16 145.914 231.145 146.336 231.127 146.76Z" style="mix-blend-mode:soft-light"/>
</g>
<path fill-rule="evenodd" clip-rule="evenodd" d="M222.909 114.173H180.075V124.283H225.492L222.909 114.173Z" fill="#2F3676"/>
<path fill-rule="evenodd" clip-rule="evenodd" d="M222.909 114.173H180.075V124.283H225.492L222.909 114.173Z" style="mix-blend-mode:soft-light"/>
<path d="M230.942 145.902C230.942 145.902 207.899 155.224 205.773 125.164" stroke="#F7B500" stroke-width="1.26452" stroke-dasharray="2.53 2.53"/>
<path fill-rule="evenodd" clip-rule="evenodd" d="M206.852 126.184C207.61 133.991 210.142 143.505 215.264 146.124C215.757 146.371 216.293 146.582 216.847 146.723C217.07 146.796 217.29 146.844 217.513 146.88C221.797 147.813 227.553 146.531 231.145 145.474C231.082 143.117 230.606 140.479 229.974 137.914C228.424 131.742 225.94 126.043 225.94 126.043C225.94 126.043 216.91 126.13 206.852 126.184Z" fill="#2F3676"/>
<path fill-rule="evenodd" clip-rule="evenodd" d="M206.852 126.184C207.61 133.991 210.142 143.505 215.264 146.124C215.757 146.371 216.293 146.582 216.847 146.723C217.07 146.796 217.29 146.844 217.513 146.88C221.797 147.813 227.553 146.531 231.145 145.474C231.082 143.117 230.606 140.479 229.974 137.914C228.424 131.742 225.94 126.043 225.94 126.043C225.94 126.043 216.91 126.13 206.852 126.184Z" style="mix-blend-mode:soft-light"/>
<path fill-rule="evenodd" clip-rule="evenodd" d="M183.152 157.392C182.168 159.152 181.132 160.78 180.075 162.285C179.828 164.374 179.582 166.44 179.338 168.529V124.271H190.926C190.926 124.346 190.944 124.4 190.944 124.475C191.083 133.231 189.836 145.484 183.152 157.392Z" fill="#20255F"/>
<path fill-rule="evenodd" clip-rule="evenodd" d="M179.337 123.544V168.527C177.35 184.849 175.345 201.167 173.358 217.488C173.358 217.488 168.995 276.839 168.995 278.158C168.995 279.477 167.43 320.805 167.43 323.003C167.43 324.921 165.638 376.2 165.163 389.685C165.093 391.726 165.057 392.907 165.057 392.907H142.124L141.968 389.685L139.752 339.267L138.96 264.971C138.96 264.971 140.137 260.132 137.765 242.986C135.215 225.382 133.104 201.203 131.593 181.471C131.451 179.89 131.346 178.342 131.24 176.828C131.099 175.106 130.976 173.435 130.852 171.818C130.729 170.162 130.623 168.563 130.5 167.016C130.361 165.083 130.238 163.252 130.114 161.53C129.955 159.173 129.798 157.047 129.675 155.181C129.395 151.541 129.199 148.903 129.076 147.585C129.04 147.32 129.025 147.04 129.025 146.76C129.007 146.335 128.988 145.917 129.007 145.474C129.235 137.474 134.212 126.043 134.212 126.043C134.212 126.043 135.531 125.495 137.711 124.829C141.245 123.754 147.068 122.351 153.294 122.385C160.222 122.421 171.844 123.526 180.112 123.544" fill="#2F3676"/>
<path fill-rule="evenodd" clip-rule="evenodd" d="M179.337 123.544V168.527C177.35 184.849 175.345 201.167 173.358 217.488C173.358 217.488 168.995 276.839 168.995 278.158C168.995 279.477 167.43 320.805 167.43 323.003C167.43 324.921 165.638 376.2 165.163 389.685C165.093 391.726 165.057 392.907 165.057 392.907H142.124L141.968 389.685L139.752 339.267L138.96 264.971C138.96 264.971 140.137 260.132 137.765 242.986C135.215 225.382 133.104 201.203 131.593 181.471C131.451 179.89 131.346 178.342 131.24 176.828C131.099 175.106 130.976 173.435 130.852 171.818C130.729 170.162 130.623 168.563 130.5 167.016C130.361 165.083 130.238 163.252 130.114 161.53C129.955 159.173 129.798 157.047 129.675 155.181C129.395 151.541 129.199 148.903 129.076 147.585C129.04 147.32 129.025 147.04 129.025 146.76C129.007 146.335 128.988 145.917 129.007 145.474C129.235 137.474 134.212 126.043 134.212 126.043C134.212 126.043 135.531 125.495 137.711 124.829C141.245 123.754 147.068 122.351 153.294 122.385C160.222 122.421 171.844 123.526 180.112 123.544" style="mix-blend-mode:soft-light"/>
<path fill-rule="evenodd" clip-rule="evenodd" d="M187.549 114.173H137.736L134.732 124.283H187.549V114.173Z" fill="#2F3676"/>
<path fill-rule="evenodd" clip-rule="evenodd" d="M187.549 114.173H137.736L134.732 124.283H187.549V114.173Z" style="mix-blend-mode:soft-light"/>
<path d="M134.732 125.164H225.493" stroke="#F7B500" stroke-width="1.26452" stroke-dasharray="2.53 2.53"/>
<path fill-rule="evenodd" clip-rule="evenodd" d="M203.007 129.119H206.566V112.999H203.007V129.119Z" fill="#20255F"/>
<path d="M128.999 145.902C128.999 145.902 152.042 155.224 154.168 125.164" stroke="#F7B500" stroke-width="1.26452" stroke-dasharray="2.53 2.53"/>
<path fill-rule="evenodd" clip-rule="evenodd" d="M153.299 126.184C152.54 133.991 150.008 143.505 144.884 146.124C144.393 146.371 143.857 146.582 143.303 146.723C143.08 146.796 142.861 146.844 142.638 146.88C138.354 147.813 132.597 146.531 129.005 145.474C129.068 143.117 129.544 140.479 130.176 137.914C131.724 131.742 134.211 126.043 134.211 126.043C134.211 126.043 143.24 126.13 153.299 126.184Z" fill="#2F3676"/>
<path fill-rule="evenodd" clip-rule="evenodd" d="M153.299 126.184C152.54 133.991 150.008 143.505 144.884 146.124C144.393 146.371 143.857 146.582 143.303 146.723C143.08 146.796 142.861 146.844 142.638 146.88C138.354 147.813 132.597 146.531 129.005 145.474C129.068 143.117 129.544 140.479 130.176 137.914C131.724 131.742 134.211 126.043 134.211 126.043C134.211 126.043 143.24 126.13 153.299 126.184Z" style="mix-blend-mode:soft-light"/>
<path fill-rule="evenodd" clip-rule="evenodd" d="M153.583 129.119H157.141V112.999H153.583V129.119Z" fill="#20255F"/>
<path fill-rule="evenodd" clip-rule="evenodd" d="M185.15 120.107C185.15 122.061 183.566 123.644 181.615 123.644C179.661 123.644 178.078 122.061 178.078 120.107C178.078 118.156 179.661 116.569 181.615 116.569C183.566 116.569 185.15 118.156 185.15 120.107Z" fill="#898989"/>
<path d="M141.997 384.2H165.219" stroke="#F7B500" stroke-width="1.26452" stroke-dasharray="2.53 2.53"/>
<path d="M195.047 384.2H218.27" stroke="#F7B500" stroke-width="1.26452" stroke-dasharray="2.53 2.53"/>
<path d="M95.0304 42.946C92.6064 41.53 90.2004 40.822 87.8124 40.822C86.6244 40.822 85.6644 41.02 84.9324 41.416C84.2124 41.812 83.8524 42.37 83.8524 43.09C83.8524 43.342 83.9064 43.57 84.0144 43.774C84.1224 43.978 84.3144 44.164 84.5904 44.332C84.8784 44.488 85.1304 44.62 85.3464 44.728C85.5744 44.824 85.9464 44.932 86.4624 45.052C86.9904 45.16 87.3864 45.238 87.6504 45.286C87.9144 45.334 88.3764 45.418 89.0364 45.538L90.0804 45.718C92.6244 46.162 94.5864 46.984 95.9664 48.184C97.3584 49.384 98.0544 50.98 98.0544 52.972C98.0544 54.136 97.8564 55.198 97.4604 56.158C97.0764 57.106 96.5544 57.904 95.8944 58.552C95.2344 59.2 94.4484 59.746 93.5364 60.19C92.6364 60.634 91.6764 60.958 90.6564 61.162C89.6484 61.366 88.5924 61.468 87.4884 61.468C85.3524 61.468 83.3064 61.192 81.3504 60.64C79.4064 60.088 77.7564 59.296 76.4004 58.264L79.4064 53.368C82.0104 55.132 84.7224 56.014 87.5424 56.014C88.7184 56.014 89.6784 55.816 90.4224 55.42C91.1664 55.012 91.5384 54.43 91.5384 53.674C91.5384 53.374 91.4664 53.11 91.3224 52.882C91.1784 52.654 90.9864 52.462 90.7464 52.306C90.5064 52.15 90.1584 52.006 89.7024 51.874C89.2584 51.742 88.8084 51.634 88.3524 51.55C87.8964 51.454 87.2964 51.346 86.5524 51.226L85.2924 51.028C82.6404 50.608 80.6484 49.78 79.3164 48.544C77.9844 47.296 77.3424 45.562 77.3904 43.342C77.4384 40.918 78.3984 38.98 80.2704 37.528C82.1424 36.076 84.5664 35.35 87.5424 35.35C89.3664 35.35 91.0584 35.542 92.6184 35.926C94.1904 36.31 95.8884 37.006 97.7124 38.014L95.0304 42.946ZM105.695 49.192H107.045L111.221 43.342H118.043L111.509 51.676L118.061 61H111.257L106.901 54.178H105.695V61H100.061V35.08H105.695V49.192ZM124.243 61H118.609V43.342H124.243V61ZM119.005 35.494C119.653 34.846 120.451 34.522 121.399 34.522C122.347 34.522 123.145 34.852 123.793 35.512C124.441 36.16 124.765 36.958 124.765 37.906C124.765 38.842 124.441 39.634 123.793 40.282C123.145 40.93 122.347 41.254 121.399 41.254C120.451 41.254 119.653 40.93 119.005 40.282C118.357 39.634 118.033 38.842 118.033 37.906C118.033 36.946 118.357 36.142 119.005 35.494ZM137.478 42.856C139.29 42.856 140.784 43.45 141.96 44.638C143.148 45.826 143.742 47.416 143.742 49.408V61H138.108V51.406C138.108 50.362 137.862 49.558 137.37 48.994C136.878 48.43 136.194 48.148 135.318 48.148C134.478 48.148 133.788 48.436 133.248 49.012C132.72 49.576 132.456 50.404 132.456 51.496V61H126.822V43.342H132.222V45.556C133.314 43.756 135.066 42.856 137.478 42.856ZM156.87 42.856C158.682 42.856 160.176 43.45 161.352 44.638C162.54 45.826 163.134 47.416 163.134 49.408V61H157.5V51.406C157.5 50.362 157.254 49.558 156.762 48.994C156.27 48.43 155.586 48.148 154.71 48.148C153.87 48.148 153.18 48.436 152.64 49.012C152.112 49.576 151.848 50.404 151.848 51.496V61H146.214V43.342H151.614V45.556C152.706 43.756 154.458 42.856 156.87 42.856ZM170.522 68.236H164.366L170.414 57.112L162.98 43.342H169.442L173.456 51.28L177.398 43.342H183.554L170.522 68.236ZM205.464 51.532C205.464 54.76 204.624 57.226 202.944 58.93C201.264 60.622 199.002 61.468 196.158 61.468C194.358 61.468 192.774 61.168 191.406 60.568C190.038 59.968 188.946 59.224 188.13 58.336L191.262 53.782C192.462 55.054 193.944 55.69 195.708 55.69C198.204 55.69 199.452 54.13 199.452 51.01V35.8H205.464V51.532ZM216.362 42.856C218.978 42.856 221.102 43.72 222.734 45.448C224.378 47.164 225.2 49.402 225.2 52.162C225.2 52.954 225.164 53.536 225.092 53.908H213.122C213.59 55.792 214.85 56.734 216.902 56.734C218.306 56.734 219.59 56.218 220.754 55.186L224.39 58.57C222.458 60.502 219.866 61.468 216.614 61.468C213.842 61.468 211.598 60.622 209.882 58.93C208.166 57.238 207.308 55.018 207.308 52.27C207.308 49.486 208.142 47.224 209.81 45.484C211.49 43.732 213.674 42.856 216.362 42.856ZM216.38 47.644C214.664 47.644 213.584 48.544 213.14 50.344H219.566C219.11 48.544 218.048 47.644 216.38 47.644ZM244.664 61H239.21V59.092C237.974 60.676 236.282 61.468 234.134 61.468C231.794 61.468 229.838 60.574 228.266 58.786C226.706 56.986 225.926 54.772 225.926 52.144C225.926 50.428 226.28 48.862 226.988 47.446C227.696 46.03 228.68 44.914 229.94 44.098C231.2 43.27 232.604 42.856 234.152 42.856C236.3 42.856 237.986 43.654 239.21 45.25V43.342H244.664V61ZM235.484 48.112C234.368 48.112 233.462 48.496 232.766 49.264C232.07 50.032 231.722 50.998 231.722 52.162C231.722 53.326 232.07 54.292 232.766 55.06C233.462 55.828 234.368 56.212 235.484 56.212C236.588 56.212 237.494 55.834 238.202 55.078C238.91 54.31 239.264 53.338 239.264 52.162C239.264 50.986 238.91 50.02 238.202 49.264C237.494 48.496 236.588 48.112 235.484 48.112ZM257.895 42.856C259.707 42.856 261.201 43.45 262.377 44.638C263.565 45.826 264.159 47.416 264.159 49.408V61H258.525V51.406C258.525 50.362 258.279 49.558 257.787 48.994C257.295 48.43 256.611 48.148 255.735 48.148C254.895 48.148 254.205 48.436 253.665 49.012C253.137 49.576 252.873 50.404 252.873 51.496V61H247.239V43.342H252.639V45.556C253.731 43.756 255.483 42.856 257.895 42.856ZM279.915 48.778C277.731 47.866 275.793 47.41 274.101 47.41C272.733 47.41 272.049 47.77 272.049 48.49C272.049 48.718 272.163 48.91 272.391 49.066C272.631 49.21 272.931 49.324 273.291 49.408C273.663 49.492 274.143 49.582 274.731 49.678C274.803 49.69 274.857 49.696 274.893 49.696L276.189 49.894C280.041 50.482 281.967 52.27 281.967 55.258C281.967 57.202 281.247 58.72 279.807 59.812C278.367 60.904 276.363 61.45 273.795 61.45C270.279 61.45 267.561 60.832 265.641 59.596L267.603 55.24C269.451 56.344 271.527 56.896 273.831 56.896C275.475 56.896 276.297 56.512 276.297 55.744C276.297 55.42 276.087 55.168 275.667 54.988C275.259 54.808 274.539 54.64 273.507 54.484L272.481 54.34C270.345 54.028 268.773 53.422 267.765 52.522C266.757 51.622 266.253 50.374 266.253 48.778C266.253 46.906 266.919 45.454 268.251 44.422C269.595 43.39 271.473 42.874 273.885 42.874C275.301 42.874 276.549 42.988 277.629 43.216C278.721 43.432 280.005 43.822 281.481 44.386L279.915 48.778Z" fill="#1D252D"/>
<path d="M318 227.428L319.481 226L334 240L319.481 254L318 252.572L331.038 240L318 227.428Z" fill="#DEDEDE"/>
<path d="M42 227.428L40.5188 226L26 240L40.5188 254L42 252.572L28.9624 240L42 227.428Z" fill="#DEDEDE"/>
</g>
<defs>
<filter id="filter0_d" x="-20" y="-10" width="400" height="520" filterUnits="userSpaceOnUse" color-interpolation-filters="sRGB">
<feFlood flood-opacity="0" result="BackgroundImageFix"/>
<feColorMatrix in="SourceAlpha" type="matrix" values="0 0 0 0 0 0 0 0 0 0 0 0 0 0 0 0 0 0 127 0"/>
<feOffset dy="10"/>
<feGaussianBlur stdDeviation="10"/>
<feColorMatrix type="matrix" values="0 0 0 0 0 0 0 0 0 0 0 0 0 0 0 0 0 0 0.15 0"/>
<feBlend mode="normal" in2="BackgroundImageFix" result="effect1_dropShadow"/>
<feBlend mode="normal" in="SourceGraphic" in2="effect1_dropShadow" result="shape"/>
</filter>
<linearGradient id="paint0_linear" x1="0" y1="0" x2="0" y2="480" gradientUnits="userSpaceOnUse">
<stop stop-color="white"/>
<stop offset="1" stop-color="white"/>
</linearGradient>
<clipPath id="clip0">
<rect width="360" height="480" fill="white"/>
</clipPath>
</defs>
</svg>
