<svg width="66" height="124" viewBox="0 0 66 124" fill="none" xmlns="http://www.w3.org/2000/svg">
<path d="M24 49H33" stroke="#FF4033" stroke-width="7"/>
<path fill-rule="evenodd" clip-rule="evenodd" d="M14 6H15.8392L16.1748 8L16.8462 12L49.1538 12L49.8252 8L50.1608 6H52C56.4183 6 60 9.58172 60 14L60 110C60 114.418 56.4183 118 52 118H14C9.58172 118 6 114.418 6 110L6 14C6 9.58172 9.58172 6 14 6ZM0 14C0 6.26802 6.26801 0 14 0L52 0C59.732 0 66 6.26801 66 14V110C66 117.732 59.732 124 52 124H14C6.26801 124 0 117.732 0 110L0 14ZM20 54H46L46 70H20V54ZM15 49H20H46H51V54L51 70V75H46H20H15V70V54V49ZM33.5 57.5C30.7386 57.5 28.5 59.7386 28.5 62.5C28.5 65.2614 30.7386 67.5 33.5 67.5C36.2614 67.5 38.5 65.2614 38.5 62.5C38.5 59.7386 36.2614 57.5 33.5 57.5Z" fill="#2F80ED"/>
</svg>
