<svg width="202" height="204" viewBox="0 0 202 204" fill="none" xmlns="http://www.w3.org/2000/svg">
<path opacity="0.493164" fill-rule="evenodd" clip-rule="evenodd" d="M133.151 86.4302L131.656 82.3169C131.138 82.3961 130.652 82.6524 130.288 83.0872C129.492 84.0347 129.614 85.4414 130.562 86.237C131.312 86.8669 132.352 86.9097 133.151 86.4302ZM127.846 72.3804C127.901 72.3155 127.937 72.2463 127.982 72.1792L126.75 68.7842C125.928 68.5539 125.007 68.804 124.419 69.5049C123.624 70.4524 123.743 71.8623 124.691 72.6579C125.636 73.4507 127.051 73.3279 127.846 72.3804ZM113.454 68.9631C114.251 68.0123 114.126 66.5911 113.178 65.7955C112.233 65.0026 110.821 65.1341 110.023 66.0848C109.228 67.0324 109.35 68.439 110.294 69.2319C111.243 70.0275 112.659 69.9106 113.454 68.9631ZM93.1834 51.9555C93.9812 51.0048 93.8655 49.5917 92.9174 48.7961C91.9692 48.0005 90.5575 48.1319 89.7597 49.0827C88.9646 50.0302 89.0857 51.4369 90.0339 52.2325C90.982 53.0281 92.3883 52.9031 93.1834 51.9555ZM116.108 45.2165C116.905 44.2657 116.781 42.8504 115.832 42.0548C114.887 41.262 113.478 41.3902 112.681 42.341C111.886 43.2885 112.004 44.6983 112.949 45.4912C113.897 46.2868 115.313 46.164 116.108 45.2165ZM131.06 109.705C131.858 108.754 131.734 107.345 130.786 106.549C129.838 105.753 128.435 105.881 127.637 106.832C126.839 107.783 126.954 109.19 127.902 109.985C128.85 110.781 130.263 110.655 131.06 109.705ZM101.708 41.7939C102.506 40.8432 102.39 39.4301 101.442 38.6345C100.494 37.8389 99.0824 37.9703 98.2846 38.9211C97.4923 39.8654 97.608 41.2785 98.5561 42.0741C99.5043 42.8697 100.916 42.7382 101.708 41.7939ZM107.583 55.3757C108.381 54.4249 108.258 53.0064 107.31 52.2108C106.365 51.4179 104.954 51.5494 104.156 52.5001C103.361 53.4477 103.479 54.8575 104.424 55.6504C105.372 56.446 106.788 56.3232 107.583 55.3757ZM141.872 110.483C141.265 111.417 141.428 112.675 142.298 113.406C142.538 113.607 142.805 113.748 143.086 113.834L141.872 110.483ZM104.931 79.121C105.726 78.1735 105.598 76.7555 104.65 75.9599C103.705 75.167 102.296 75.2953 101.501 76.2428C100.703 77.1935 100.822 78.6034 101.767 79.3963C102.715 80.1919 104.134 80.0718 104.931 79.121ZM84.6611 62.1107C85.4561 61.1631 85.3377 59.7533 84.3896 58.9577C83.4414 58.1621 82.0324 58.2903 81.2373 59.2378C80.4396 60.1886 80.558 61.5985 81.5061 62.3941C82.4543 63.1897 83.8633 63.0614 84.6611 62.1107ZM95.8374 28.2089C96.6352 27.2582 96.52 25.851 95.5718 25.0554C94.6237 24.2598 93.2082 24.3826 92.4104 25.3334C91.6154 26.2809 91.7402 27.6962 92.6884 28.4918C93.6365 29.2874 95.0423 29.1565 95.8374 28.2089ZM99.0576 65.5365C99.8554 64.5857 99.7278 63.1736 98.7796 62.378C97.8347 61.5852 96.4284 61.7101 95.6307 62.6609C94.8329 63.6117 94.954 65.0183 95.8989 65.8112C96.8471 66.6068 98.2598 66.4872 99.0576 65.5365ZM78.7866 48.5289C79.5844 47.5781 79.4666 46.1742 78.5184 45.3786C77.5702 44.583 76.1575 44.7026 75.3597 45.6534C74.5619 46.6041 74.6895 48.0162 75.6376 48.8118C76.5858 49.6074 77.9889 49.4797 78.7866 48.5289ZM125.192 96.1201C125.987 95.1726 125.863 93.7573 124.918 92.9644C123.97 92.1688 122.56 92.297 121.765 93.2446C120.968 94.1953 121.086 95.6052 122.034 96.4008C122.979 97.1937 124.395 97.0709 125.192 96.1201ZM136.695 96.212C136.502 96.3373 136.322 96.4794 136.162 96.6709C135.364 97.6216 135.482 99.0255 136.43 99.8211C136.935 100.245 137.576 100.401 138.18 100.311L136.695 96.212ZM119.321 82.5412C120.119 81.5904 119.992 80.1784 119.047 79.3855C118.099 78.5899 116.692 78.7149 115.895 79.6656C115.097 80.6164 115.218 82.023 116.166 82.8186C117.111 83.6115 118.524 83.492 119.321 82.5412ZM87.3118 38.3682C88.1096 37.4174 87.9972 36.007 87.049 35.2114C86.1008 34.4158 84.6826 34.5418 83.8849 35.4926C83.0898 36.4401 83.2147 37.8554 84.1628 38.651C85.111 39.4466 86.5167 39.3157 87.3118 38.3682ZM27.6362 109.487C28.4312 108.54 28.3161 107.133 27.3679 106.337C26.4198 105.541 25.0043 105.664 24.2092 106.612C23.4114 107.562 23.5363 108.978 24.4845 109.773C25.4326 110.569 26.8384 110.438 27.6362 109.487ZM62.303 129.923C63.098 128.976 62.9699 127.558 62.0218 126.762C61.0769 125.969 59.6679 126.098 58.8728 127.045C58.0777 127.993 58.1934 129.406 59.1383 130.199C60.0865 130.994 61.5079 130.871 62.303 129.923ZM42.0327 112.913C42.8278 111.966 42.7094 110.556 41.7612 109.76C40.8131 108.964 39.4041 109.093 38.609 110.04C37.814 110.988 37.9296 112.401 38.8778 113.196C39.8259 113.992 41.2377 113.861 42.0327 112.913ZM73.2683 130.465C72.6067 131.254 72.5874 132.355 73.1343 133.162L76.2826 133.708C76.4298 133.605 76.5728 133.487 76.6953 133.341C77.4904 132.393 77.3655 130.978 76.4206 130.185C75.4724 129.389 74.0634 129.518 73.2683 130.465ZM21.7717 95.914C22.5667 94.9664 22.4451 93.5539 21.4969 92.7583C20.798 92.1717 19.86 92.0869 19.0871 92.4559L17.9027 93.8675C17.6735 94.6926 17.9145 95.6081 18.6135 96.1946C19.5616 96.9902 20.9766 96.8615 21.7717 95.914ZM110.236 31.6319C111.031 30.6844 110.915 29.2713 109.967 28.4757C109.019 27.6801 107.607 27.8116 106.812 28.7591C106.017 29.7066 106.136 31.1165 107.084 31.9121C108.032 32.7077 109.441 32.5794 110.236 31.6319ZM33.5071 123.075C34.3021 122.127 34.1837 120.717 33.2356 119.922C32.2874 119.126 30.8784 119.254 30.0834 120.202C29.2856 121.153 29.404 122.562 30.3521 123.358C31.3003 124.154 32.7093 124.025 33.5071 123.075ZM47.9064 126.498C48.7015 125.55 48.5766 124.135 47.6285 123.339C46.6836 122.546 45.2746 122.675 44.4795 123.622C43.6817 124.573 43.8001 125.983 44.745 126.776C45.6932 127.571 47.1086 127.448 47.9064 126.498ZM19.1105 119.646C19.9056 118.698 19.7904 117.291 18.8423 116.496C17.8941 115.7 16.4786 115.823 15.6836 116.77C14.8858 117.721 15.0106 119.137 15.9588 119.932C16.907 120.728 18.3127 120.597 19.1105 119.646ZM30.2966 85.7524C31.0944 84.8016 30.9701 83.3923 30.0219 82.5967C29.3229 82.0101 28.3849 81.9253 27.6094 82.2976L26.425 83.7091C26.1985 84.531 26.4394 85.4465 27.1384 86.033C28.0866 86.8286 29.5016 86.6999 30.2966 85.7524ZM104.362 18.0473C105.16 17.0966 105.045 15.6894 104.097 14.8938C103.149 14.0982 101.733 14.221 100.935 15.1718C100.14 16.1193 100.265 17.5346 101.213 18.3302C102.161 19.1258 103.567 18.9949 104.362 18.0473ZM89.9757 14.63C90.7707 13.6825 90.6518 12.2667 89.7037 11.4711C89.0047 10.8846 88.0613 10.8063 87.2884 11.1752L86.104 12.5868C85.8776 13.4087 86.1212 14.3209 86.8202 14.9075C87.7684 15.7031 89.1806 15.5775 89.9757 14.63ZM72.9223 34.9536C73.7201 34.0029 73.6012 32.5871 72.653 31.7915C71.9541 31.2049 71.0106 31.1266 70.2378 31.4956L69.0561 32.9039C68.8242 33.7323 69.0706 34.6413 69.7696 35.2278C70.7177 36.0234 72.1273 35.9012 72.9223 34.9536ZM81.448 24.7949C82.2458 23.8441 82.1269 22.4283 81.1787 21.6327C80.4797 21.0462 79.5363 20.9679 78.7635 21.3368L77.579 22.7484C77.3499 23.5735 77.5935 24.4858 78.2925 25.0723C79.2407 25.8679 80.6556 25.7391 81.448 24.7949ZM38.8217 75.594C39.6195 74.6432 39.4978 73.2306 38.5497 72.435C37.8507 71.8485 36.91 71.767 36.1344 72.1392L34.9527 73.5475C34.7236 74.3727 34.9672 75.2849 35.6662 75.8714C36.6144 76.667 38.0266 76.5415 38.8217 75.594ZM47.3473 65.4324C48.1451 64.4816 48.0235 63.069 47.0753 62.2734C46.3764 61.6869 45.4356 61.6054 44.6628 61.9744L43.4811 63.3827C43.2492 64.2111 43.4929 65.1233 44.1919 65.7098C45.14 66.5054 46.5523 66.3799 47.3473 65.4324ZM64.4 45.1088C65.195 44.1612 65.0734 42.7487 64.1253 41.9531C63.4263 41.3665 62.4829 41.2882 61.7128 41.654L60.5283 43.0655C60.2992 43.8907 60.5428 44.8029 61.2418 45.3894C62.19 46.185 63.6022 46.0595 64.4 45.1088ZM55.875 55.2704C56.6701 54.3228 56.5485 52.9103 55.6003 52.1147C54.9013 51.5281 53.9606 51.4466 53.1851 51.8188L52.0034 53.2271C51.7742 54.0523 52.0178 54.9645 52.7168 55.551C53.665 56.3466 55.0772 56.2211 55.875 55.2704ZM13.2467 106.073C14.0418 105.125 13.9201 103.713 12.972 102.917C12.273 102.331 11.3323 102.249 10.5622 102.615L9.37777 104.026C9.14859 104.851 9.38952 105.767 10.0885 106.353C11.0367 107.149 12.4489 107.023 13.2467 106.073ZM102.061 137.311C101.846 137.567 101.702 137.844 101.62 138.146L106.003 138.915C106.051 138.22 105.786 137.511 105.21 137.028C104.262 136.232 102.859 136.36 102.061 137.311ZM79.353 109.603C80.1508 108.653 80.0227 107.235 79.0745 106.439C78.1296 105.646 76.7206 105.774 75.9228 106.725C75.1278 107.673 75.2461 109.083 76.1911 109.875C77.1392 110.671 78.5579 110.551 79.353 109.603ZM85.221 123.179C86.0187 122.228 85.8912 120.816 84.9462 120.023C83.9981 119.228 82.5918 119.353 81.794 120.304C80.9962 121.254 81.1146 122.664 82.0628 123.46C83.0077 124.253 84.4232 124.13 85.221 123.179ZM116.451 140.73L116.443 140.74L120.265 141.409C120.132 141.049 119.923 140.713 119.606 140.447C118.664 139.657 117.249 139.78 116.451 140.73ZM73.4821 96.016C74.2799 95.0653 74.155 93.65 73.2069 92.8544C72.262 92.0615 70.853 92.1897 70.0552 93.1405C69.2574 94.0913 69.3785 95.4979 70.3234 96.2908C71.2716 97.0864 72.6843 96.9668 73.4821 96.016ZM44.6861 89.1669C45.4839 88.2161 45.366 86.8122 44.4179 86.0166C43.4697 85.221 42.0569 85.3405 41.2592 86.2913C40.4614 87.2421 40.5862 88.6574 41.5344 89.453C42.4825 90.2486 43.8883 90.1176 44.6861 89.1669ZM110.796 92.7C111.594 91.7492 111.466 90.3372 110.521 89.5443C109.573 88.7487 108.167 88.8737 107.369 89.8244C106.571 90.7752 106.689 92.1851 107.638 92.9807C108.583 93.7735 109.998 93.6507 110.796 92.7ZM59.0827 92.5931C59.8805 91.6423 59.7621 90.2324 58.814 89.4368C57.8658 88.6412 56.4568 88.7695 55.659 89.7202C54.864 90.6678 54.9824 92.0776 55.9305 92.8732C56.8787 93.6688 58.2877 93.5406 59.0827 92.5931ZM50.5577 102.754C51.3555 101.803 51.2344 100.397 50.2862 99.6013C49.3381 98.8057 47.9318 98.9307 47.134 99.8814C46.3389 100.829 46.4546 102.242 47.4027 103.038C48.3509 103.833 49.7626 103.702 50.5577 102.754ZM56.4314 116.336C57.2265 115.388 57.1016 113.973 56.1534 113.178C55.2085 112.385 53.7995 112.513 53.0044 113.46C52.2067 114.411 52.3223 115.824 53.2672 116.617C54.2154 117.413 55.6336 117.287 56.4314 116.336ZM121.979 58.8043C122.433 58.2624 122.575 57.5682 122.445 56.9281L122.21 56.2613C122.079 56.0297 121.916 55.8159 121.703 55.6367C120.758 54.8438 119.346 54.9753 118.548 55.9261C117.756 56.8703 117.872 58.2835 118.817 59.0763C119.765 59.8719 121.186 59.7486 121.979 58.8043ZM98.4979 4.47449C99.2957 3.52373 99.1768 2.1079 98.2286 1.3123C97.5296 0.725782 96.5862 0.647477 95.8134 1.01646L94.6317 2.42476C94.4025 3.24991 94.6462 4.16216 95.3452 4.74868C96.2933 5.54428 97.7028 5.42201 98.4979 4.47449ZM64.9564 106.177C65.7541 105.226 65.6266 103.814 64.6784 103.019C63.7335 102.226 62.3272 102.351 61.5294 103.302C60.7316 104.252 60.85 105.662 61.7949 106.455C62.7431 107.251 64.1586 107.128 64.9564 106.177ZM4.72376 116.228C5.51883 115.281 5.39448 113.871 4.44632 113.076C3.74733 112.489 2.80663 112.408 2.0338 112.777L0.852102 114.185C0.622927 115.01 0.86386 115.926 1.56285 116.512C2.511 117.308 3.92597 117.179 4.72376 116.228ZM87.6617 133.887C87.2424 134.387 87.0862 135.013 87.1623 135.619L91.3624 136.351C91.833 135.435 91.6326 134.294 90.8139 133.607C89.8658 132.811 88.4595 132.936 87.6617 133.887ZM70.8279 119.762C71.6257 118.811 71.4949 117.396 70.5467 116.601C69.6018 115.808 68.1955 115.933 67.3978 116.884C66.6027 117.831 66.7184 119.244 67.6633 120.037C68.6114 120.833 70.0329 120.709 70.8279 119.762ZM36.1611 99.3285C36.9562 98.3809 36.8411 96.9738 35.8929 96.1782C34.9447 95.3826 33.5293 95.5054 32.7342 96.4529C31.9364 97.4037 32.0586 98.8222 33.0067 99.6178C33.9549 100.413 35.3634 100.279 36.1611 99.3285ZM53.2112 79.0085C54.0089 78.0577 53.8938 76.6506 52.9456 75.855C51.9975 75.0594 50.582 75.1822 49.7842 76.1329C48.9864 77.0837 49.114 78.4958 50.0622 79.2914C51.0103 80.087 52.4134 79.9593 53.2112 79.0085ZM99.6141 126.603C100.412 125.652 100.287 124.236 99.3421 123.444C98.3939 122.648 96.9849 122.776 96.1871 123.727C95.3921 124.674 95.5105 126.084 96.4586 126.88C97.4035 127.673 98.819 127.55 99.6141 126.603ZM76.1354 72.2694C76.9305 71.3219 76.8121 69.9121 75.8639 69.1165C74.9157 68.3209 73.5067 68.4491 72.7117 69.3966C71.9139 70.3474 72.0323 71.7572 72.9804 72.5528C73.9286 73.3484 75.3376 73.2202 76.1354 72.2694ZM96.4063 89.2798C97.2014 88.3323 97.0733 86.9143 96.1252 86.1187C95.1802 85.3258 93.7712 85.454 92.9762 86.4016C92.1784 87.3523 92.2968 88.7622 93.2417 89.5551C94.1898 90.3507 95.6086 90.2306 96.4063 89.2798ZM153.385 146.115C154.183 145.164 154.062 143.752 153.113 142.956C152.169 142.163 150.756 142.289 149.958 143.24C149.163 144.187 149.285 145.6 150.23 146.393C151.178 147.188 152.59 147.063 153.385 146.115ZM142.799 136.866C143.597 135.915 143.475 134.502 142.527 133.707C141.585 132.917 140.17 133.039 139.372 133.99C138.574 134.941 138.699 136.356 139.641 137.146C140.589 137.942 142.001 137.817 142.799 136.866ZM116.667 106.282C117.462 105.334 117.337 103.919 116.392 103.126C115.444 102.33 114.035 102.459 113.24 103.406C112.442 104.357 112.56 105.767 113.509 106.562C114.453 107.355 115.869 107.232 116.667 106.282ZM70.2617 58.6877C71.0595 57.7369 70.9416 56.333 69.9934 55.5374C69.0453 54.7418 67.6325 54.8614 66.8347 55.8121C66.0369 56.7629 66.1618 58.1782 67.11 58.9738C68.0581 59.7694 69.4639 59.6385 70.2617 58.6877ZM90.5319 75.6981C91.3297 74.7473 91.2021 73.3352 90.254 72.5396C89.3091 71.7468 87.9028 71.8717 87.105 72.8225C86.3072 73.7733 86.4256 75.1831 87.3705 75.976C88.3187 76.7716 89.7341 76.6488 90.5319 75.6981ZM135.807 124.624C136.749 123.501 136.747 121.946 135.799 121.15C134.857 120.36 133.322 120.626 132.38 121.748C131.438 122.871 131.445 124.426 132.387 125.216C133.335 126.012 134.865 125.747 135.807 124.624ZM122.535 119.864C123.333 118.913 123.211 117.501 122.263 116.705C121.315 115.909 119.909 116.04 119.111 116.991C118.313 117.942 118.429 119.349 119.377 120.145C120.325 120.94 121.737 120.815 122.535 119.864ZM114.01 130.023C114.808 129.072 114.686 127.659 113.738 126.864C112.79 126.068 111.384 126.199 110.586 127.15C109.788 128.101 109.906 129.505 110.854 130.3C111.803 131.096 113.212 130.973 114.01 130.023ZM102.271 102.859C103.069 101.908 102.944 100.493 101.999 99.7002C101.051 98.9046 99.6418 99.0329 98.844 99.9836C98.0462 100.934 98.1646 102.344 99.1128 103.14C100.058 103.933 101.473 103.81 102.271 102.859ZM87.878 99.4418C88.6757 98.4911 88.5476 97.0731 87.5995 96.2775C86.6546 95.4846 85.2456 95.6128 84.4478 96.5636C83.6527 97.5111 83.7711 98.921 84.716 99.7139C85.6642 100.509 87.0829 100.389 87.878 99.4418ZM131.912 143.447L133.888 143.794C133.304 143.36 132.574 143.25 131.912 143.447ZM93.746 113.021C94.5438 112.07 94.4189 110.655 93.474 109.862C92.5259 109.066 91.1169 109.194 90.3191 110.145C89.5213 111.096 89.6424 112.503 90.5906 113.298C91.5355 114.091 92.9482 113.972 93.746 113.021ZM108.139 116.444C108.937 115.493 108.812 114.078 107.867 113.285C106.919 112.489 105.51 112.617 104.712 113.568C103.917 114.516 104.035 115.926 104.984 116.721C105.928 117.514 107.344 117.391 108.139 116.444ZM61.7368 68.8469C62.5346 67.8961 62.4195 66.489 61.4713 65.6934C60.5231 64.8978 59.1077 65.0206 58.3099 65.9713C57.5121 66.9221 57.637 68.3374 58.5851 69.133C59.5333 69.9286 60.939 69.7977 61.7368 68.8469ZM82.0071 85.8573C82.8049 84.9065 82.68 83.4912 81.7318 82.6956C80.7869 81.9027 79.3779 82.031 78.5801 82.9817C77.7823 83.9325 77.9007 85.3424 78.8457 86.1352C79.7938 86.9308 81.2093 86.808 82.0071 85.8573ZM67.6077 82.4343C68.4055 81.4835 68.2871 80.0737 67.339 79.2781C66.3908 78.4825 64.9818 78.6107 64.184 79.5615C63.3889 80.509 63.5073 81.9188 64.4555 82.7144C65.4036 83.51 66.8126 83.3818 67.6077 82.4343ZM128.403 133.446C129.201 132.495 129.079 131.082 128.131 130.287C127.189 129.497 125.774 129.619 124.976 130.57C124.181 131.518 124.306 132.933 125.247 133.723C126.196 134.519 127.608 134.393 128.403 133.446Z" fill="#819CB6"/>
</svg>
